<svg width="48" height="48" viewBox="0 0 48 48" fill="none" xmlns="http://www.w3.org/2000/svg">
<g clip-path="url(#clip0_1_1164)">
<path d="M12.9852 41.5875L6.32897 41.5793H6.32812C6.14164 41.5792 5.96276 41.6532 5.83082 41.785C5.69888 41.9168 5.62469 42.0956 5.62458 42.282C5.62447 42.4685 5.69844 42.6474 5.83022 42.7794C5.962 42.9113 6.1408 42.9855 6.32728 42.9856L12.9835 42.9938H12.9844C13.1709 42.9939 13.3497 42.9199 13.4817 42.7881C13.6136 42.6563 13.6878 42.4775 13.6879 42.291C13.688 42.1046 13.6141 41.9257 13.4823 41.7937C13.3505 41.6618 13.1717 41.5876 12.9852 41.5875ZM47.043 29.8236L42.2074 24.988C41.6316 24.4115 40.8606 24.0718 40.0466 24.0362L37.8791 21.8687C39.2426 19.7095 39.8314 17.1509 39.5488 14.6129C39.2662 12.075 38.129 9.70853 36.3239 7.90219C36.1574 7.73569 35.9869 7.57578 35.8124 7.42247V3.51562C35.8114 2.58356 35.4406 1.68997 34.7816 1.03089C34.1225 0.371808 33.2289 0.00106699 32.2969 0L3.51562 0C2.58354 0.00104218 1.68994 0.371772 1.03085 1.03085C0.371772 1.68994 0.00104218 2.58354 0 3.51562L0 44.4844C0.00104218 45.4165 0.371772 46.3101 1.03085 46.9691C1.68994 47.6282 2.58354 47.999 3.51562 48H27.4964C27.4997 48 27.503 47.9995 27.5062 47.9995C27.5093 47.9995 27.5124 48 27.5156 48C27.6303 48.0001 27.7432 47.9721 27.8445 47.9185C27.9458 47.8648 28.0325 47.7872 28.0969 47.6924L35.6027 40.303C35.6691 40.2376 35.7219 40.1596 35.7579 40.0736C35.7939 39.9875 35.8125 39.8952 35.8125 39.8019V26.6259L36.6343 27.4476C36.6698 28.2618 37.0095 29.0332 37.5863 29.6091L42.4219 34.4447C42.7253 34.7481 43.0855 34.9888 43.482 35.153C43.8784 35.3172 44.3034 35.4017 44.7325 35.4017C45.1616 35.4017 45.5865 35.3172 45.9829 35.153C46.3794 34.9888 46.7396 34.7481 47.043 34.4446C47.3465 34.1412 47.5872 33.781 47.7514 33.3845C47.9156 32.9881 48.0001 32.5632 48.0001 32.134C48.0001 31.7049 47.9156 31.28 47.7514 30.8836C47.5871 30.4871 47.3464 30.1269 47.043 29.8235V29.8236ZM28.2188 45.5991V42.6094C28.2194 42.0501 28.4418 41.514 28.8373 41.1185C29.2327 40.7231 29.7689 40.5006 30.3281 40.5H33.3981L28.2188 45.5991ZM34.4062 39.0938H30.3281C29.396 39.0948 28.5024 39.4655 27.8434 40.1246C27.1843 40.7837 26.8135 41.6773 26.8125 42.6094V46.5938H3.51562C2.95638 46.5931 2.42023 46.3707 2.02478 45.9752C1.62934 45.5798 1.4069 45.0436 1.40625 44.4844V3.51562C1.4069 2.95638 1.62934 2.42023 2.02478 2.02478C2.42023 1.62934 2.95638 1.4069 3.51562 1.40625H32.2969C32.8561 1.4069 33.3923 1.62934 33.7877 2.02478C34.1832 2.42023 34.4056 2.95638 34.4062 3.51562V6.36375C33.157 5.57001 31.7634 5.03056 30.3054 4.77633C28.8473 4.5221 27.3534 4.55808 25.9092 4.8822C24.4651 5.20632 23.0991 5.81222 21.8895 6.66517C20.6799 7.51812 19.6506 8.60137 18.8603 9.85284L4.92234 9.84375H4.92188C4.73539 9.84369 4.55653 9.91771 4.42462 10.0495C4.29272 10.1813 4.21858 10.3602 4.21852 10.5466C4.21845 10.7331 4.29247 10.912 4.42429 11.0439C4.55611 11.1758 4.73493 11.2499 4.92141 11.25L18.1083 11.2586C17.9043 11.7151 17.7311 12.1847 17.5898 12.6643L4.92234 12.6562C4.73586 12.6561 4.55697 12.7301 4.42502 12.8619C4.29307 12.9936 4.21887 13.1724 4.21875 13.3589C4.21863 13.5454 4.29259 13.7243 4.42436 13.8562C4.55613 13.9882 4.73493 14.0624 4.92141 14.0625L17.2733 14.0704C17.199 14.5359 17.154 15.0056 17.1383 15.4767L4.92244 15.4688C4.73596 15.4686 4.55707 15.5426 4.42512 15.6744C4.29317 15.8061 4.21897 15.9849 4.21884 16.1714C4.21872 16.3579 4.29268 16.5368 4.42445 16.6687C4.55623 16.8007 4.73502 16.8749 4.9215 16.875L17.1786 16.883C17.3568 18.8242 18.0359 20.686 19.1494 22.286C20.263 23.8861 21.7728 25.1697 23.5312 26.0112V33.1482L20.7188 33.1469V26.448C20.7181 25.8888 20.4957 25.3526 20.1002 24.9572C19.7048 24.5617 19.1686 24.3393 18.6094 24.3386H17.2031C16.6439 24.3393 16.1077 24.5617 15.7123 24.9572C15.3168 25.3526 15.0944 25.8888 15.0938 26.448V33.1445L12.2812 33.1432V29.2605C12.2806 28.7013 12.0582 28.1651 11.6627 27.7697C11.2673 27.3742 10.7311 27.1518 10.1719 27.1511H8.76562C8.20638 27.1518 7.67023 27.3742 7.27478 27.7697C6.87934 28.1651 6.6569 28.7013 6.65625 29.2605V33.1408L4.73466 33.1399H4.73438C4.54789 33.1398 4.36904 33.2139 4.23715 33.3457C4.10526 33.4776 4.03115 33.6564 4.03111 33.8429C4.03107 34.0293 4.10512 34.2082 4.23695 34.3401C4.36879 34.472 4.54761 34.5461 4.73409 34.5461L7.24472 34.5472C7.2826 34.5537 7.32094 34.5571 7.35938 34.5574H11.5781C11.6122 34.5571 11.6462 34.5544 11.6799 34.5492L15.7067 34.551C15.7366 34.555 15.7667 34.5572 15.7969 34.5574H20.0156C20.0415 34.5573 20.0674 34.5558 20.0932 34.5529L24.1811 34.5548C24.1988 34.5561 24.2164 34.5574 24.2344 34.5574H28.4531C28.4585 34.5574 28.4636 34.5567 28.4689 34.5566L31.3123 34.5578H31.3125C31.499 34.5579 31.6778 34.4838 31.8097 34.352C31.9416 34.2202 32.0157 34.0413 32.0158 33.8549C32.0158 33.6684 31.9418 33.4895 31.8099 33.3576C31.6781 33.2257 31.4993 33.1516 31.3128 33.1516L29.1562 33.1507V27.0729C31.0233 26.9481 32.8288 26.355 34.4062 25.3484V39.0938ZM19.3125 26.448V33.1463L16.5 33.1451V26.448C16.5002 26.2616 16.5743 26.0829 16.7062 25.951C16.838 25.8192 17.0167 25.7451 17.2031 25.7449H18.6094C18.7958 25.7451 18.9745 25.8192 19.1063 25.951C19.2382 26.0829 19.3123 26.2616 19.3125 26.448ZM10.875 29.2605V33.1426L8.0625 33.1414V29.2605C8.0627 29.0741 8.13684 28.8954 8.26866 28.7635C8.40048 28.6317 8.57921 28.5576 8.76562 28.5574H10.1719C10.3583 28.5576 10.537 28.6317 10.6688 28.7635C10.8007 28.8954 10.8748 29.0741 10.875 29.2605ZM24.9375 33.1488V26.568C25.8492 26.8587 26.7944 27.0317 27.75 27.0829V33.15L24.9375 33.1488ZM35.3296 22.812C34.9723 23.1693 34.5884 23.499 34.1812 23.7982C34.1737 23.8029 34.1667 23.8087 34.1595 23.8138C32.7883 24.8084 31.1843 25.4333 29.5016 25.6284C27.819 25.8234 26.1145 25.5821 24.5522 24.9276C24.5259 24.9142 24.4987 24.9026 24.4709 24.8927C22.6049 24.0872 21.0341 22.7236 19.9743 20.9894C18.9145 19.2551 18.4176 17.2353 18.552 15.2073C18.6864 13.1793 19.4455 11.2427 20.7249 9.66344C22.0043 8.08422 23.7413 6.93989 25.6973 6.38766C27.6533 5.83542 29.7323 5.90237 31.6486 6.57932C33.565 7.25626 35.2248 8.50998 36.4 10.1682C37.5751 11.8265 38.208 13.808 38.2116 15.8404C38.2153 17.8728 37.5895 19.8565 36.4203 21.519C36.4065 21.5363 36.3935 21.5542 36.3815 21.5727C36.0652 22.0138 35.7134 22.4282 35.3296 22.812ZM36.9874 25.812L35.6243 24.4494C35.8647 24.2458 36.098 24.0314 36.3239 23.8063C36.5766 23.5537 36.8155 23.2913 37.0407 23.0192L38.4106 24.3891C37.7979 24.7013 37.2998 25.1994 36.9875 25.8121L36.9874 25.812ZM46.0486 33.4504C45.8758 33.6232 45.6706 33.7604 45.4448 33.8539C45.2189 33.9475 44.9769 33.9956 44.7324 33.9956C44.488 33.9956 44.246 33.9475 44.0201 33.8539C43.7943 33.7604 43.5891 33.6232 43.4163 33.4504L38.5807 28.6147C38.2359 28.2648 38.0435 27.7928 38.0454 27.3015C38.0472 26.8103 38.2432 26.3398 38.5905 25.9924C38.9379 25.6451 39.4085 25.4491 39.8997 25.4473C40.3909 25.4454 40.8629 25.6378 41.2129 25.9825L46.0485 30.8181C46.3971 31.1674 46.5929 31.6407 46.5929 32.1342C46.5929 32.6277 46.3971 33.1011 46.0485 33.4504H46.0486ZM11.9522 5.625L21.0459 5.63559H21.0468C21.2333 5.63571 21.4121 5.56173 21.5441 5.42995C21.676 5.29817 21.7502 5.11937 21.7503 4.93289C21.7504 4.74641 21.6765 4.56752 21.5447 4.43558C21.4129 4.30364 21.2341 4.22946 21.0476 4.22934L11.9539 4.21875H11.953C11.8607 4.21869 11.7693 4.23683 11.6839 4.27211C11.5986 4.30739 11.5211 4.35914 11.4557 4.42439C11.3904 4.48964 11.3386 4.56713 11.3032 4.65241C11.2678 4.7377 11.2495 4.82912 11.2495 4.92145C11.2494 5.01379 11.2676 5.10523 11.3028 5.19056C11.3381 5.27589 11.3899 5.35343 11.4551 5.41876C11.5204 5.48409 11.5979 5.53593 11.6831 5.57132C11.7684 5.6067 11.8599 5.62494 11.9522 5.625ZM23.1115 35.9625L17.9553 35.9543H17.953C17.5676 35.9543 17.198 36.1074 16.9255 36.38C16.653 36.6525 16.4999 37.0221 16.4999 37.4075V38.72C16.5005 39.1048 16.6534 39.4737 16.9254 39.7461C17.1973 40.0184 17.566 40.1719 17.9508 40.1731L23.107 40.1813H23.1093C23.3001 40.1813 23.4891 40.1437 23.6654 40.0707C23.8417 39.9976 24.0019 39.8906 24.1368 39.7557C24.2718 39.6207 24.3788 39.4605 24.4518 39.2842C24.5248 39.1079 24.5624 38.919 24.5624 38.7281V37.4156C24.5618 37.0308 24.4089 36.6619 24.137 36.3895C23.8651 36.1172 23.4964 35.9637 23.1115 35.9625ZM23.1562 38.7281C23.1563 38.7343 23.1551 38.7404 23.1528 38.7461C23.1504 38.7518 23.1469 38.757 23.1425 38.7612C23.1384 38.766 23.1333 38.7697 23.1275 38.7721C23.1217 38.7745 23.1154 38.7755 23.1092 38.775L17.9529 38.7668C17.9405 38.7668 17.9286 38.7619 17.9199 38.7531C17.9111 38.7443 17.9062 38.7324 17.9062 38.72V37.4075C17.9062 37.4013 17.9074 37.3952 17.9097 37.3895C17.9121 37.3838 17.9156 37.3786 17.9199 37.3743C17.9243 37.3699 17.9295 37.3665 17.9352 37.3641C17.9409 37.3618 17.947 37.3606 17.9531 37.3606L23.1094 37.3688C23.1218 37.3688 23.1337 37.3737 23.1425 37.3825C23.1512 37.3913 23.1562 37.4032 23.1562 37.4156V38.7281ZM12.2365 35.9625L7.08028 35.9543H7.07812C6.69273 35.9543 6.32312 36.1074 6.05061 36.38C5.7781 36.6525 5.625 37.0221 5.625 37.4075V38.72C5.62557 39.1048 5.77854 39.4737 6.05044 39.7461C6.32235 40.0184 6.69105 40.1719 7.07587 40.1731L12.2321 40.1813H12.2344C12.4252 40.1813 12.6142 40.1437 12.7905 40.0707C12.9668 39.9976 13.127 39.8906 13.2619 39.7557C13.3969 39.6207 13.5039 39.4605 13.5769 39.2842C13.6499 39.1079 13.6875 38.919 13.6875 38.7281V37.4156C13.6869 37.0308 13.534 36.6619 13.2621 36.3895C12.9902 36.1172 12.6215 35.9637 12.2366 35.9625H12.2365ZM12.2812 38.7281C12.2813 38.7343 12.2801 38.7404 12.2778 38.7461C12.2754 38.7518 12.2719 38.757 12.2675 38.7612C12.2634 38.766 12.2583 38.7697 12.2525 38.7721C12.2467 38.7745 12.2404 38.7755 12.2342 38.775L7.07794 38.7668C7.06552 38.7668 7.05362 38.7619 7.04485 38.7531C7.03608 38.7443 7.03116 38.7324 7.03116 38.72V37.4075C7.03103 37.4013 7.03219 37.3951 7.03457 37.3894C7.03694 37.3837 7.04047 37.3786 7.04494 37.3743C7.05401 37.3659 7.06578 37.361 7.07812 37.3606L12.2344 37.3688C12.2468 37.3688 12.2587 37.3737 12.2675 37.3825C12.2762 37.3913 12.2812 37.4032 12.2812 37.4156V38.7281ZM28.3719 8.031C26.562 8.03209 24.8085 8.66069 23.4101 9.80969C22.0117 10.9587 21.0549 12.557 20.7028 14.3324C20.3507 16.1077 20.625 17.9502 21.479 19.5459C22.3331 21.1417 23.714 22.3919 25.3865 23.0837C27.059 23.7755 28.9196 23.8659 30.6513 23.3397C32.383 22.8135 33.8787 21.7031 34.8835 20.1977C35.8884 18.6924 36.3402 16.8852 36.162 15.0841C35.9838 13.283 35.1866 11.5994 33.9063 10.3201C33.181 9.59155 32.3184 9.01411 31.3684 8.62118C30.4184 8.22826 29.4 8.02766 28.3719 8.031ZM29.0456 22.2353C27.6639 22.3814 26.272 22.0762 25.0781 21.3653V16.8881C25.0783 16.7017 25.1525 16.523 25.2843 16.3912C25.4161 16.2593 25.5948 16.1852 25.7812 16.185H28.3425C28.5289 16.1852 28.7076 16.2593 28.8395 16.3912C28.9713 16.523 29.0454 16.7017 29.0456 16.8881V22.2353ZM32.9119 20.3943C32.2203 21.0871 31.3786 21.6115 30.4519 21.9268V16.8881C30.4512 16.3289 30.2288 15.7927 29.8333 15.3973C29.4379 15.0018 28.9017 14.7794 28.3425 14.7787H25.7812C25.222 14.7794 24.6859 15.0018 24.2904 15.3973C23.895 15.7927 23.6725 16.3289 23.6719 16.8881V20.226C22.8323 19.3202 22.2709 18.1921 22.0544 16.9761C21.838 15.7601 21.9758 14.5076 22.4513 13.3677L29.4834 13.3778H29.4844C29.6709 13.3779 29.8497 13.3039 29.9817 13.1721C30.1136 13.0404 30.1878 12.8616 30.188 12.6751C30.1881 12.4886 30.1141 12.3097 29.9824 12.1778C29.8506 12.0458 29.6718 11.9716 29.4853 11.9715L23.2664 11.9626C23.4404 11.7342 23.6294 11.5177 23.8321 11.3144C25.0362 10.1107 26.6692 9.43462 28.3718 9.43479C30.0744 9.43497 31.7072 10.1114 32.911 11.3153C34.1149 12.5192 34.7914 14.1521 34.7915 15.8547C34.7916 17.5572 34.1155 19.1902 32.9118 20.3943H32.9119ZM23.8603 41.5874L17.5046 41.5793H17.5037C17.3172 41.5792 17.1383 41.6532 17.0064 41.785C16.8744 41.9167 16.8002 42.0955 16.8001 42.282C16.8 42.4685 16.8739 42.6474 17.0057 42.7793C17.1375 42.9113 17.3163 42.9855 17.5028 42.9856L23.8584 42.9938H23.8594C24.0459 42.9939 24.2247 42.9199 24.3567 42.7881C24.4886 42.6564 24.5628 42.4776 24.563 42.2911C24.5631 42.1046 24.4891 41.9257 24.3574 41.7938C24.2256 41.6618 24.0468 41.5876 23.8603 41.5875V41.5874Z" fill="#929292"/>
</g>
<defs>
<clipPath id="clip0_1_1164">
<rect width="48" height="48" fill="white"/>
</clipPath>
</defs>
</svg>
