<svg width="20" height="21" viewBox="0 0 20 21" fill="none" xmlns="http://www.w3.org/2000/svg">
<path d="M15 6.91675C15 5.59067 14.4732 4.3189 13.5355 3.38121C12.5979 2.44353 11.3261 1.91675 10 1.91675C8.67392 1.91675 7.40215 2.44353 6.46447 3.38121C5.52678 4.3189 5 5.59067 5 6.91675C5 12.7501 2.5 14.4167 2.5 14.4167H17.5C17.5 14.4167 15 12.7501 15 6.91675Z" stroke="#353636" stroke-width="1.6" stroke-linecap="round" stroke-linejoin="round"/>
<path d="M11.4417 17.75C11.2952 18.0026 11.0849 18.2122 10.8319 18.3579C10.5789 18.5037 10.292 18.5804 10 18.5804C9.70803 18.5804 9.42117 18.5037 9.16816 18.3579C8.91515 18.2122 8.70486 18.0026 8.55835 17.75" stroke="#353636" stroke-width="1.6" stroke-linecap="round" stroke-linejoin="round"/>
</svg>
