<svg width="20" height="21" viewBox="0 0 20 21" fill="none" xmlns="http://www.w3.org/2000/svg">
<path d="M16.6667 6.08325H3.33332C2.41285 6.08325 1.66666 6.82944 1.66666 7.74992V16.0833C1.66666 17.0037 2.41285 17.7499 3.33332 17.7499H16.6667C17.5871 17.7499 18.3333 17.0037 18.3333 16.0833V7.74992C18.3333 6.82944 17.5871 6.08325 16.6667 6.08325Z" stroke="#353636" stroke-width="1.6" stroke-linecap="round" stroke-linejoin="round"/>
<path d="M13.3333 17.75V4.41667C13.3333 3.97464 13.1577 3.55072 12.8452 3.23816C12.5326 2.92559 12.1087 2.75 11.6667 2.75H8.33332C7.8913 2.75 7.46737 2.92559 7.15481 3.23816C6.84225 3.55072 6.66666 3.97464 6.66666 4.41667V17.75" stroke="#353636" stroke-width="1.6" stroke-linecap="round" stroke-linejoin="round"/>
</svg>
