<svg width="48" height="48" viewBox="0 0 48 48" fill="none" xmlns="http://www.w3.org/2000/svg">
<path d="M7.84698 25.144H26.423C26.6219 25.144 26.8127 25.065 26.9533 24.9243C27.094 24.7837 27.173 24.5929 27.173 24.394C27.173 24.1951 27.094 24.0043 26.9533 23.8637C26.8127 23.723 26.6219 23.644 26.423 23.644H8.59998V9.68799C8.59998 9.48908 8.52096 9.29831 8.38031 9.15766C8.23965 9.01701 8.04889 8.93799 7.84998 8.93799C7.65106 8.93799 7.4603 9.01701 7.31965 9.15766C7.17899 9.29831 7.09998 9.48908 7.09998 9.68799V24.394C7.09997 24.5924 7.17858 24.7827 7.31858 24.9233C7.45859 25.0638 7.64858 25.1432 7.84698 25.144ZM32.092 13.644H40.355C40.5539 13.644 40.7447 13.565 40.8853 13.4243C41.026 13.2837 41.105 13.0929 41.105 12.894C41.105 12.6951 41.026 12.5043 40.8853 12.3637C40.7447 12.223 40.5539 12.144 40.355 12.144H32.092C31.8931 12.144 31.7023 12.223 31.5616 12.3637C31.421 12.5043 31.342 12.6951 31.342 12.894C31.342 13.0929 31.421 13.2837 31.5616 13.4243C31.7023 13.565 31.8931 13.644 32.092 13.644ZM32.092 17.794H40.355C40.5539 17.794 40.7447 17.715 40.8853 17.5743C41.026 17.4337 41.105 17.2429 41.105 17.044C41.105 16.8451 41.026 16.6543 40.8853 16.5137C40.7447 16.373 40.5539 16.294 40.355 16.294H32.092C31.8931 16.294 31.7023 16.373 31.5616 16.5137C31.421 16.6543 31.342 16.8451 31.342 17.044C31.342 17.2429 31.421 17.4337 31.5616 17.5743C31.7023 17.715 31.8931 17.794 32.092 17.794ZM32.092 21.944H40.355C40.5539 21.944 40.7447 21.865 40.8853 21.7243C41.026 21.5837 41.105 21.3929 41.105 21.194C41.105 20.9951 41.026 20.8043 40.8853 20.6637C40.7447 20.523 40.5539 20.444 40.355 20.444H32.092C31.8931 20.444 31.7023 20.523 31.5616 20.6637C31.421 20.8043 31.342 20.9951 31.342 21.194C31.342 21.3929 31.421 21.5837 31.5616 21.7243C31.7023 21.865 31.8931 21.944 32.092 21.944Z" fill="#929292"/>
<path d="M10.74 22.321C10.9357 22.3212 11.1238 22.2447 11.264 22.108L16.206 17.288L18.559 19.024C18.7083 19.1344 18.8934 19.1854 19.0782 19.1669C19.2631 19.1484 19.4344 19.0618 19.559 18.924L25.6709 12.148V12.831C25.6709 13.0299 25.75 13.2206 25.8906 13.3613C26.0313 13.5019 26.222 13.581 26.4209 13.581C26.6199 13.581 26.8106 13.5019 26.9513 13.3613C27.0919 13.2206 27.1709 13.0299 27.1709 12.831V10.2C27.1709 10.001 27.0919 9.81027 26.9513 9.66962C26.8106 9.52897 26.6199 9.44995 26.4209 9.44995H23.468C23.269 9.44995 23.0783 9.52897 22.9376 9.66962C22.797 9.81027 22.718 10.001 22.718 10.2C22.718 10.3989 22.797 10.5896 22.9376 10.7303C23.0783 10.8709 23.269 10.95 23.468 10.95H24.735L18.9 17.414L16.584 15.7C16.4407 15.5946 16.2646 15.5434 16.0872 15.5557C15.9097 15.568 15.7424 15.6428 15.615 15.767L10.215 21.032C10.1082 21.136 10.0349 21.2696 10.0044 21.4155C9.97389 21.5615 9.98757 21.7132 10.0437 21.8513C10.0998 21.9894 10.1959 22.1077 10.3195 22.191C10.4432 22.2743 10.5889 22.3188 10.738 22.319L10.74 22.321Z" fill="#929292"/>
<path d="M45.6 2.25903H2.4C1.76328 2.26062 1.15314 2.51454 0.703284 2.96514C0.253426 3.41575 0.000527303 4.02631 0 4.66303L0 32.729C0.000526447 33.3659 0.253393 33.9765 0.703223 34.4273C1.15305 34.878 1.76318 35.1322 2.4 35.134H45.6C46.2368 35.1322 46.8469 34.878 47.2968 34.4273C47.7466 33.9765 47.9995 33.3659 48 32.729V4.66303C47.9995 4.02631 47.7466 3.41575 47.2967 2.96514C46.8469 2.51454 46.2367 2.26062 45.6 2.25903ZM46.5 32.729C46.5 32.9682 46.4053 33.1976 46.2367 33.3672C46.0681 33.5368 45.8392 33.6327 45.6 33.634H2.4C2.16085 33.6327 1.93194 33.5368 1.7633 33.3672C1.59466 33.1976 1.5 32.9682 1.5 32.729V4.66303C1.5 4.42434 1.59482 4.19542 1.7636 4.02664C1.93239 3.85785 2.16131 3.76303 2.4 3.76303H45.6C45.8387 3.76303 46.0676 3.85785 46.2364 4.02664C46.4052 4.19542 46.5 4.42434 46.5 4.66303V32.729Z" fill="#929292"/>
<path d="M44.176 5.12109H3.82397C3.62506 5.12109 3.4343 5.20011 3.29364 5.34076C3.15299 5.48142 3.07397 5.67218 3.07397 5.87109V28.7081C3.07397 28.907 3.15299 29.0978 3.29364 29.2384C3.4343 29.3791 3.62506 29.4581 3.82397 29.4581H44.176C44.3749 29.4581 44.5657 29.3791 44.7063 29.2384C44.847 29.0978 44.926 28.907 44.926 28.7081V5.87109C44.926 5.67218 44.847 5.48142 44.7063 5.34076C44.5657 5.20011 44.3749 5.12109 44.176 5.12109ZM43.426 27.9581H4.57397V6.62109H43.426V27.9581ZM32.092 41.4821H28.9L28.39 36.8721C28.3681 36.6744 28.2686 36.4934 28.1133 36.3691C27.958 36.2448 27.7597 36.1872 27.562 36.2091C27.3643 36.231 27.1833 36.3305 27.059 36.4858C26.9347 36.6411 26.8771 36.8394 26.899 37.0371L27.483 42.3151C27.5034 42.4986 27.5908 42.6681 27.7285 42.7912C27.8661 42.9143 28.0443 42.9822 28.229 42.9821H31.345V44.2411H16.658V42.9821H19.774C19.9586 42.9822 20.1368 42.9143 20.2745 42.7912C20.4121 42.6681 20.4995 42.4986 20.52 42.3151L21.104 37.0371C21.1148 36.9392 21.1063 36.8401 21.0788 36.7455C21.0513 36.6509 21.0055 36.5627 20.944 36.4858C20.8824 36.4089 20.8063 36.3449 20.72 36.2974C20.6337 36.2499 20.5389 36.2199 20.441 36.2091C20.2433 36.1872 20.0449 36.2448 19.8897 36.3691C19.7344 36.4934 19.6349 36.6744 19.613 36.8721L19.103 41.4821H15.903C15.7041 41.4821 15.5133 41.5611 15.3726 41.7018C15.232 41.8424 15.153 42.0332 15.153 42.2321V44.9911C15.153 45.19 15.232 45.3808 15.3726 45.5214C15.5133 45.6621 15.7041 45.7411 15.903 45.7411H32.092C32.2909 45.7411 32.4817 45.6621 32.6223 45.5214C32.763 45.3808 32.842 45.19 32.842 44.9911V42.2321C32.842 42.0332 32.763 41.8424 32.6223 41.7018C32.4817 41.5611 32.2909 41.4821 32.092 41.4821Z" fill="#929292"/>
</svg>
