<svg width="48" height="48" viewBox="0 0 48 48" fill="none" xmlns="http://www.w3.org/2000/svg">
<path d="M3 45.75H15C15.0985 45.7501 15.1961 45.7307 15.2871 45.693C15.3781 45.6554 15.4608 45.6001 15.5305 45.5305C15.6001 45.4608 15.6554 45.3781 15.693 45.2871C15.7307 45.1961 15.7501 45.0985 15.75 45C15.7477 43.6567 15.3448 42.3446 14.5928 41.2314C13.8408 40.1183 12.7739 39.2548 11.5285 38.7513C12.0869 38.2414 12.4782 37.5746 12.6509 36.8384C12.8236 36.1022 12.7697 35.3309 12.4962 34.6259C12.2228 33.9209 11.7426 33.315 11.1187 32.8878C10.4947 32.4606 9.75619 32.2319 9 32.2319C8.24381 32.2319 7.50528 32.4606 6.88134 32.8878C6.2574 33.315 5.7772 33.9209 5.50375 34.6259C5.23031 35.3309 5.17641 36.1022 5.34911 36.8384C5.52181 37.5746 5.91306 38.2414 6.4715 38.7513C5.2261 39.2548 4.15919 40.1183 3.4072 41.2314C2.6552 42.3446 2.25229 43.6567 2.25 45C2.24994 45.0985 2.2693 45.1961 2.30697 45.2871C2.34464 45.3781 2.39989 45.4608 2.46954 45.5305C2.5392 45.6001 2.6219 45.6554 2.71292 45.693C2.80394 45.7307 2.90149 45.7501 3 45.75ZM6.75 36C6.75 35.555 6.88196 35.12 7.12919 34.75C7.37643 34.38 7.72783 34.0916 8.13896 33.9213C8.5501 33.751 9.0025 33.7064 9.43895 33.7932C9.87541 33.8801 10.2763 34.0943 10.591 34.409C10.9057 34.7237 11.12 35.1246 11.2068 35.5611C11.2936 35.9975 11.249 36.4499 11.0787 36.861C10.9084 37.2722 10.62 37.6236 10.25 37.8708C9.88002 38.118 9.44501 38.25 9 38.25C8.40346 38.2494 7.83154 38.0121 7.40973 37.5903C6.98791 37.1685 6.75065 36.5965 6.75 36ZM9 39.75C10.2621 39.7514 11.4816 40.2068 12.4356 41.033C13.3897 41.8592 14.0147 43.0011 14.1965 44.25H3.80346C3.98526 43.0011 4.61029 41.8592 5.56437 41.033C6.51845 40.2068 7.73791 39.7514 9 39.75ZM41.5285 38.7513C42.0869 38.2414 42.4782 37.5746 42.6509 36.8384C42.8236 36.1022 42.7697 35.3309 42.4962 34.6259C42.2228 33.9209 41.7426 33.315 41.1187 32.8878C40.4947 32.4606 39.7562 32.2319 39 32.2319C38.2438 32.2319 37.5053 32.4606 36.8813 32.8878C36.2574 33.315 35.7772 33.9209 35.5038 34.6259C35.2303 35.3309 35.1764 36.1022 35.3491 36.8384C35.5218 37.5746 35.9131 38.2414 36.4715 38.7513C35.2261 39.2548 34.1592 40.1183 33.4072 41.2314C32.6552 42.3446 32.2523 43.6567 32.25 45C32.2499 45.0985 32.2693 45.1961 32.307 45.2871C32.3446 45.3781 32.3999 45.4608 32.4695 45.5305C32.5392 45.6001 32.6219 45.6554 32.7129 45.693C32.8039 45.7307 32.9015 45.7501 33 45.75H45C45.0985 45.7501 45.1961 45.7307 45.2871 45.693C45.3781 45.6554 45.4608 45.6001 45.5305 45.5305C45.6001 45.4608 45.6554 45.3781 45.693 45.2871C45.7307 45.1961 45.7501 45.0985 45.75 45C45.7477 43.6567 45.3448 42.3446 44.5928 41.2314C43.8408 40.1183 42.7739 39.2548 41.5285 38.7513ZM36.75 36C36.75 35.555 36.882 35.12 37.1292 34.75C37.3764 34.38 37.7278 34.0916 38.139 33.9213C38.5501 33.751 39.0025 33.7064 39.439 33.7932C39.8754 33.8801 40.2763 34.0943 40.591 34.409C40.9057 34.7237 41.1199 35.1246 41.2068 35.5611C41.2936 35.9975 41.249 36.4499 41.0787 36.861C40.9084 37.2722 40.62 37.6236 40.25 37.8708C39.88 38.118 39.445 38.25 39 38.25C38.4035 38.2494 37.8315 38.0121 37.4097 37.5903C36.9879 37.1685 36.7507 36.5965 36.75 36ZM33.8035 44.25C33.9839 43.0005 34.6085 41.8578 35.5629 41.0314C36.5173 40.2049 37.7375 39.75 39 39.75C40.2625 39.75 41.4827 40.2049 42.4371 41.0314C43.3915 41.8578 44.0161 43.0005 44.1965 44.25H33.8035ZM3 15.75H15C15.0985 15.7501 15.1961 15.7307 15.2871 15.693C15.3781 15.6554 15.4608 15.6001 15.5305 15.5305C15.6001 15.4608 15.6554 15.3781 15.693 15.2871C15.7307 15.1961 15.7501 15.0985 15.75 15C15.7477 13.6567 15.3448 12.3446 14.5928 11.2314C13.8408 10.1183 12.7739 9.25478 11.5285 8.75126C12.0869 8.24138 12.4782 7.57458 12.6509 6.83838C12.8236 6.10217 12.7697 5.33095 12.4962 4.62592C12.2228 3.9209 11.7426 3.31501 11.1187 2.88778C10.4947 2.46055 9.75619 2.23193 9 2.23193C8.24381 2.23193 7.50528 2.46055 6.88134 2.88778C6.2574 3.31501 5.7772 3.9209 5.50375 4.62592C5.23031 5.33095 5.17641 6.10217 5.34911 6.83838C5.52181 7.57458 5.91306 8.24138 6.4715 8.75126C5.2261 9.25478 4.15919 10.1183 3.4072 11.2314C2.6552 12.3446 2.25229 13.6567 2.25 15C2.24994 15.0985 2.2693 15.1961 2.30697 15.2871C2.34464 15.3781 2.39989 15.4608 2.46954 15.5305C2.5392 15.6001 2.6219 15.6554 2.71292 15.693C2.80394 15.7307 2.90149 15.7501 3 15.75ZM6.75 6C6.75 5.555 6.88196 5.11998 7.12919 4.74997C7.37643 4.37996 7.72783 4.09157 8.13896 3.92128C8.5501 3.75098 9.0025 3.70642 9.43895 3.79324C9.87541 3.88005 10.2763 4.09435 10.591 4.40901C10.9057 4.72368 11.12 5.12459 11.2068 5.56105C11.2936 5.99751 11.249 6.44991 11.0787 6.86104C10.9084 7.27218 10.62 7.62358 10.25 7.87081C9.88002 8.11804 9.44501 8.25 9 8.25C8.40346 8.24935 7.83154 8.01209 7.40973 7.59027C6.98791 7.16846 6.75065 6.59654 6.75 6ZM9 9.75C10.2621 9.75143 11.4816 10.2068 12.4356 11.033C13.3897 11.8592 14.0147 13.0011 14.1965 14.25H3.80346C3.98526 13.0011 4.61029 11.8592 5.56437 11.033C6.51845 10.2068 7.73791 9.75143 9 9.75ZM41.5285 8.75126C42.0869 8.24138 42.4782 7.57458 42.6509 6.83838C42.8236 6.10217 42.7697 5.33095 42.4962 4.62592C42.2228 3.9209 41.7426 3.31501 41.1187 2.88778C40.4947 2.46055 39.7562 2.23193 39 2.23193C38.2438 2.23193 37.5053 2.46055 36.8813 2.88778C36.2574 3.31501 35.7772 3.9209 35.5038 4.62592C35.2303 5.33095 35.1764 6.10217 35.3491 6.83838C35.5218 7.57458 35.9131 8.24138 36.4715 8.75126C35.2261 9.25478 34.1592 10.1183 33.4072 11.2314C32.6552 12.3446 32.2523 13.6567 32.25 15C32.2499 15.0985 32.2693 15.1961 32.307 15.2871C32.3446 15.3781 32.3999 15.4608 32.4695 15.5305C32.5392 15.6001 32.6219 15.6554 32.7129 15.693C32.8039 15.7307 32.9015 15.7501 33 15.75H45C45.0985 15.7501 45.1961 15.7307 45.2871 15.693C45.3781 15.6554 45.4608 15.6001 45.5305 15.5305C45.6001 15.4608 45.6554 15.3781 45.693 15.2871C45.7307 15.1961 45.7501 15.0985 45.75 15C45.7477 13.6567 45.3448 12.3446 44.5928 11.2314C43.8408 10.1183 42.7739 9.25478 41.5285 8.75126ZM36.75 6C36.75 5.555 36.882 5.11998 37.1292 4.74997C37.3764 4.37996 37.7278 4.09157 38.139 3.92128C38.5501 3.75098 39.0025 3.70642 39.439 3.79324C39.8754 3.88005 40.2763 4.09435 40.591 4.40901C40.9057 4.72368 41.1199 5.12459 41.2068 5.56105C41.2936 5.99751 41.249 6.44991 41.0787 6.86104C40.9084 7.27218 40.62 7.62358 40.25 7.87081C39.88 8.11804 39.445 8.25 39 8.25C38.4035 8.24935 37.8315 8.01209 37.4097 7.59027C36.9879 7.16846 36.7507 6.59654 36.75 6ZM33.8035 14.25C33.9839 13.0005 34.6085 11.8578 35.5629 11.0314C36.5173 10.2049 37.7375 9.75002 39 9.75002C40.2625 9.75002 41.4827 10.2049 42.4371 11.0314C43.3915 11.8578 44.0161 13.0005 44.1965 14.25H33.8035ZM8.89599 17.3013C8.8042 17.2654 8.70623 17.248 8.60771 17.2501C8.50918 17.2522 8.41203 17.2737 8.32185 17.3135C8.23168 17.3532 8.15024 17.4104 8.08222 17.4817C8.0142 17.553 7.96093 17.6371 7.92549 17.729C6.35811 21.7628 6.35811 26.2372 7.92549 30.271C7.98015 30.4121 8.07621 30.5333 8.20106 30.6188C8.3259 30.7043 8.47369 30.7501 8.625 30.75C8.71775 30.7501 8.80969 30.7327 8.89599 30.6987C8.98781 30.6632 9.07172 30.6099 9.14295 30.542C9.21418 30.474 9.27132 30.3927 9.31111 30.3026C9.3509 30.2126 9.37255 30.1156 9.37485 30.0172C9.37714 29.9187 9.36002 29.8208 9.32446 29.729C7.89185 26.044 7.89185 21.956 9.32446 18.271C9.36002 18.1792 9.37714 18.0813 9.37485 17.9829C9.37255 17.8844 9.3509 17.7874 9.31111 17.6974C9.27132 17.6073 9.21418 17.526 9.14295 17.458C9.07172 17.3901 8.98781 17.3368 8.89599 17.3013ZM21.0154 40.9644C21.2028 40.9642 21.3834 40.8938 21.5216 40.7672C21.6597 40.6405 21.7454 40.4666 21.7618 40.2799C21.7781 40.0932 21.724 39.9071 21.61 39.7583C21.4959 39.6095 21.3303 39.5088 21.1458 39.4761C19.0998 39.1117 17.1484 38.3379 15.4087 37.2012C15.3262 37.1473 15.2338 37.1102 15.137 37.0921C15.0401 37.074 14.9406 37.0751 14.8442 37.0954C14.7478 37.1158 14.6563 37.1549 14.575 37.2107C14.4937 37.2664 14.4243 37.3376 14.3705 37.4202C14.3168 37.5028 14.2799 37.5952 14.2619 37.6921C14.2439 37.789 14.2452 37.8885 14.2657 37.9849C14.2862 38.0813 14.3255 38.1727 14.3814 38.2539C14.4373 38.335 14.5086 38.4044 14.5913 38.458C16.4991 39.7053 18.6394 40.5538 20.8835 40.9526C20.9271 40.9601 20.9712 40.9641 21.0154 40.9644ZM33.6291 37.4209C33.5755 37.3382 33.5061 37.267 33.4249 37.2112C33.3436 37.1554 33.2522 37.1162 33.1558 37.0958C33.0594 37.0754 32.9599 37.0742 32.8631 37.0922C32.7662 37.1103 32.6738 37.1473 32.5913 37.2012C30.8516 38.3379 28.9002 39.1117 26.8542 39.4761C26.6697 39.5088 26.5041 39.6095 26.39 39.7583C26.276 39.9071 26.2219 40.0932 26.2382 40.2799C26.2546 40.4666 26.3403 40.6405 26.4784 40.7672C26.6166 40.8938 26.7972 40.9642 26.9846 40.9644C27.0288 40.9641 27.0729 40.9601 27.1165 40.9526C29.3606 40.5538 31.5009 39.7053 33.4087 38.458C33.5754 38.3497 33.6923 38.1796 33.7337 37.9851C33.775 37.7906 33.7374 37.5877 33.6291 37.4209ZM39.104 30.6987C39.1903 30.7327 39.2822 30.7501 39.375 30.75C39.5263 30.75 39.6741 30.7043 39.7989 30.6188C39.9238 30.5333 40.0198 30.4121 40.0745 30.271C41.6418 26.2372 41.6418 21.7628 40.0745 17.729C40.0026 17.5435 39.86 17.3941 39.678 17.3138C39.496 17.2334 39.2895 17.2287 39.104 17.3005C38.9185 17.3724 38.7691 17.515 38.6888 17.697C38.6084 17.879 38.6037 18.0855 38.6755 18.271C40.1082 21.956 40.1082 26.044 38.6755 29.729C38.64 29.8208 38.6229 29.9187 38.6252 30.0172C38.6274 30.1156 38.6491 30.2126 38.6889 30.3026C38.7287 30.3927 38.7858 30.474 38.857 30.542C38.9283 30.6099 39.0122 30.6632 39.104 30.6987ZM31.8428 8.63379C29.4121 7.40164 26.7252 6.75954 24 6.75954C21.2748 6.75954 18.588 7.40164 16.1573 8.63379C16.069 8.67836 15.9904 8.73996 15.926 8.81504C15.8616 8.89012 15.8128 8.9772 15.7822 9.07126C15.7516 9.16532 15.74 9.2645 15.7479 9.36308C15.7559 9.46166 15.7832 9.55769 15.8285 9.64565C15.8737 9.7336 15.9359 9.81173 16.0115 9.87554C16.087 9.93934 16.1745 9.98756 16.2688 10.0174C16.363 10.0473 16.4623 10.0582 16.5608 10.0495C16.6593 10.0408 16.7552 10.0127 16.8428 9.9668C19.0612 8.84295 21.5132 8.25731 24 8.25731C26.4869 8.25731 28.9388 8.84295 31.1573 9.9668C31.2629 10.0218 31.3802 10.0504 31.4993 10.0503C31.6676 10.0505 31.831 9.99417 31.9634 9.89024C32.0957 9.7863 32.1892 9.64087 32.2289 9.47733C32.2686 9.31379 32.252 9.14167 32.182 8.98866C32.112 8.83565 31.9925 8.71066 31.8428 8.63379ZM31.5 17.25H16.5C16.4015 17.2499 16.3039 17.2693 16.2129 17.307C16.1219 17.3446 16.0392 17.3999 15.9695 17.4695C15.8999 17.5392 15.8446 17.6219 15.807 17.7129C15.7693 17.8039 15.7499 17.9015 15.75 18V26.25H15C14.9015 26.2499 14.8039 26.2693 14.7129 26.307C14.6219 26.3446 14.5392 26.3999 14.4695 26.4695C14.3999 26.5392 14.3446 26.6219 14.307 26.7129C14.2693 26.8039 14.2499 26.9015 14.25 27C14.251 27.9942 14.6465 28.9475 15.3495 29.6505C16.0525 30.3535 17.0058 30.749 18 30.75H30C30.9942 30.749 31.9475 30.3535 32.6505 29.6505C33.3535 28.9475 33.749 27.9942 33.75 27C33.7501 26.9015 33.7307 26.8039 33.693 26.7129C33.6554 26.6219 33.6001 26.5392 33.5305 26.4695C33.4608 26.3999 33.3781 26.3446 33.2871 26.307C33.1961 26.2693 33.0985 26.2499 33 26.25H32.25V18C32.2501 17.9015 32.2307 17.8039 32.193 17.7129C32.1554 17.6219 32.1001 17.5392 32.0305 17.4695C31.9608 17.3999 31.8781 17.3446 31.7871 17.307C31.6961 17.2693 31.5985 17.2499 31.5 17.25ZM17.25 18.75H30.75V26.25H17.25V18.75ZM30 29.25H18C17.5348 29.2494 17.0811 29.105 16.7013 28.8364C16.3214 28.5679 16.0339 28.1884 15.8782 27.75H32.1218C31.9661 28.1884 31.6786 28.5679 31.2987 28.8364C30.9189 29.105 30.4652 29.2494 30 29.25Z" fill="#929292"/>
<path d="M24 41.25C24.4142 41.25 24.75 40.9142 24.75 40.5C24.75 40.0858 24.4142 39.75 24 39.75C23.5858 39.75 23.25 40.0858 23.25 40.5C23.25 40.9142 23.5858 41.25 24 41.25Z" fill="#929292"/>
</svg>
