<svg width="48" height="48" viewBox="0 0 48 48" fill="none" xmlns="http://www.w3.org/2000/svg">
<path d="M31.5 29.25H30.75V24C30.75 20.2778 27.7222 17.25 24 17.25C20.2778 17.25 17.25 20.2778 17.25 24V29.25H16.5C15.2593 29.25 14.25 30.2593 14.25 31.5V43.5C14.25 44.7407 15.2593 45.75 16.5 45.75H21C21.4146 45.75 21.75 45.4146 21.75 45C21.75 44.5854 21.4146 44.25 21 44.25H16.5C16.0869 44.25 15.75 43.9131 15.75 43.5V31.5C15.75 31.0869 16.0869 30.75 16.5 30.75H31.5C31.9131 30.75 32.25 31.0869 32.25 31.5V43.5C32.25 43.9131 31.9131 44.25 31.5 44.25H27C26.5854 44.25 26.25 44.5854 26.25 45C26.25 45.4146 26.5854 45.75 27 45.75H31.5C32.7407 45.75 33.75 44.7407 33.75 43.5V31.5C33.75 30.2593 32.7407 29.25 31.5 29.25ZM26.25 29.25H21.75V24C21.75 22.7593 22.7593 21.75 24 21.75C25.2407 21.75 26.25 22.7593 26.25 24V29.25ZM27.75 29.25V24C27.75 21.9316 26.0684 20.25 24 20.25C21.9316 20.25 20.25 21.9316 20.25 24V29.25H18.75V24C18.75 21.1055 21.1055 18.75 24 18.75C26.8945 18.75 29.25 21.1055 29.25 24V29.25H27.75Z" fill="#929292"/>
<path d="M27 36.75C27 35.0962 25.6538 33.75 24 33.75C22.3462 33.75 21 35.0962 21 36.75C21 38.1433 21.96 39.3079 23.25 39.6434V40.5C23.25 40.9146 23.5854 41.25 24 41.25C24.4146 41.25 24.75 40.9146 24.75 40.5V39.6434C26.04 39.3079 27 38.1433 27 36.75ZM24 38.25C23.1724 38.25 22.5 37.5776 22.5 36.75C22.5 35.9224 23.1724 35.25 24 35.25C24.8276 35.25 25.5 35.9224 25.5 36.75C25.5 37.5776 24.8276 38.25 24 38.25ZM15.75 18V7.5C15.75 7.30078 15.6709 7.11035 15.5303 6.96973L11.0303 2.46973C10.8896 2.3291 10.6992 2.25 10.5 2.25H3C2.58545 2.25 2.25 2.58545 2.25 3V18C2.25 18.4146 2.58545 18.75 3 18.75H15C15.4146 18.75 15.75 18.4146 15.75 18ZM11.25 4.81055L13.1895 6.75H11.25V4.81055ZM3.75 17.25V3.75H9.75V7.5C9.75 7.91455 10.0854 8.25 10.5 8.25H14.25V17.25H3.75Z" fill="#929292"/>
<path d="M12 9.75H6C5.58545 9.75 5.25 10.0854 5.25 10.5C5.25 10.9146 5.58545 11.25 6 11.25H12C12.4146 11.25 12.75 10.9146 12.75 10.5C12.75 10.0854 12.4146 9.75 12 9.75ZM12 12.75H6C5.58545 12.75 5.25 13.0854 5.25 13.5C5.25 13.9146 5.58545 14.25 6 14.25H12C12.4146 14.25 12.75 13.9146 12.75 13.5C12.75 13.0854 12.4146 12.75 12 12.75ZM41.0303 2.46973C40.8896 2.3291 40.6992 2.25 40.5 2.25H33C32.5854 2.25 32.25 2.58545 32.25 3V18C32.25 18.4146 32.5854 18.75 33 18.75H45C45.4146 18.75 45.75 18.4146 45.75 18V7.5C45.75 7.30078 45.6709 7.11035 45.5303 6.96973L41.0303 2.46973ZM41.25 4.81055L43.1895 6.75H41.25V4.81055ZM33.75 17.25V3.75H39.75V7.5C39.75 7.91455 40.0854 8.25 40.5 8.25H44.25V17.25H33.75Z" fill="#929292"/>
<path d="M42 9.75H36C35.5854 9.75 35.25 10.0854 35.25 10.5C35.25 10.9146 35.5854 11.25 36 11.25H42C42.4146 11.25 42.75 10.9146 42.75 10.5C42.75 10.0854 42.4146 9.75 42 9.75ZM42 12.75H36C35.5854 12.75 35.25 13.0854 35.25 13.5C35.25 13.9146 35.5854 14.25 36 14.25H42C42.4146 14.25 42.75 13.9146 42.75 13.5C42.75 13.0854 42.4146 12.75 42 12.75ZM18 9.75C17.5854 9.75 17.25 10.0854 17.25 10.5C17.25 10.9146 17.5854 11.25 18 11.25H30C30.4146 11.25 30.75 10.9146 30.75 10.5C30.75 10.0854 30.4146 9.75 30 9.75H18ZM12 33.75H10.5C10.0869 33.75 9.75 33.4131 9.75 33V21C9.75 20.5854 9.41455 20.25 9 20.25C8.58545 20.25 8.25 20.5854 8.25 21V33C8.25 34.2407 9.25928 35.25 10.5 35.25H12C12.4146 35.25 12.75 34.9146 12.75 34.5C12.75 34.0854 12.4146 33.75 12 33.75ZM39 20.25C38.5854 20.25 38.25 20.5854 38.25 21V33C38.25 33.4131 37.9131 33.75 37.5 33.75H36C35.5854 33.75 35.25 34.0854 35.25 34.5C35.25 34.9146 35.5854 35.25 36 35.25H37.5C38.7407 35.25 39.75 34.2407 39.75 33V21C39.75 20.5854 39.4146 20.25 39 20.25Z" fill="#929292"/>
<path d="M24 45.75C24.4142 45.75 24.75 45.4142 24.75 45C24.75 44.5858 24.4142 44.25 24 44.25C23.5858 44.25 23.25 44.5858 23.25 45C23.25 45.4142 23.5858 45.75 24 45.75Z" fill="#929292"/>
</svg>
