<svg width="48" height="48" viewBox="0 0 48 48" fill="none" xmlns="http://www.w3.org/2000/svg">
<path d="M15.75 4.50911C15.5511 4.50911 15.3603 4.58813 15.2197 4.72878C15.079 4.86943 15 5.0602 15 5.25911V15.0091H13.5V11.0686C13.5 9.93311 13.0125 8.98361 12.2925 8.38361C11.5725 7.78661 10.656 7.50911 9.75 7.50911C8.844 7.50911 7.9275 7.78661 7.2075 8.38511C6.4875 8.98361 6 9.93311 6 11.0686V15.0091H3.75C3.55109 15.0091 3.36032 15.0881 3.21967 15.2288C3.07902 15.3694 3 15.5602 3 15.7591V38.2591C3 38.458 3.07902 38.6488 3.21967 38.7894C3.36032 38.9301 3.55109 39.0091 3.75 39.0091H15V42.7441C15 42.943 15.079 43.1338 15.2197 43.2744C15.3603 43.4151 15.5511 43.4941 15.75 43.4941H44.25C44.4489 43.4941 44.6397 43.4151 44.7803 43.2744C44.921 43.1338 45 42.943 45 42.7441V11.5606C45.0007 11.5026 44.9947 11.4447 44.982 11.3881C44.9977 11.274 44.9869 11.1579 44.9505 11.0486C44.9141 10.9394 44.853 10.84 44.772 10.7581L38.742 4.73111C38.6712 4.66043 38.5869 4.60464 38.4941 4.56702C38.4014 4.52941 38.3021 4.51074 38.202 4.51211C38.148 4.51232 38.0942 4.51835 38.0415 4.53011C37.9801 4.51525 37.9171 4.50819 37.854 4.50911H15.75ZM16.5 6.00911H37.4625V11.2891C37.4625 11.488 37.5415 11.6788 37.6822 11.8194C37.8228 11.9601 38.0136 12.0391 38.2125 12.0391H43.5V41.9941H16.5V39.0091H26.25C26.4489 39.0091 26.6397 38.9301 26.7803 38.7894C26.921 38.6488 27 38.458 27 38.2591V15.7591C27 15.5602 26.921 15.3694 26.7803 15.2288C26.6397 15.0881 26.4489 15.0091 26.25 15.0091H16.5V6.00911ZM38.9625 7.07261L42.4305 10.5376H38.9625V7.07261ZM9.75 9.00761C10.344 9.00761 10.9275 9.20261 11.3325 9.53861C11.7375 9.87611 12 10.3336 12 11.0686V20.0386C12 21.0961 11.5545 21.2956 11.25 21.2956C10.9455 21.2956 10.5 21.0961 10.5 20.0386V12.6946C10.5 12.4957 10.421 12.3049 10.2803 12.1643C10.1397 12.0236 9.94891 11.9446 9.75 11.9446C9.55109 11.9446 9.36032 12.0236 9.21967 12.1643C9.07902 12.3049 9 12.4957 9 12.6946V15.0091H7.5V11.0686C7.5 10.3336 7.7625 9.87611 8.1675 9.53861C8.5725 9.20261 9.156 9.00761 9.75 9.00761ZM19.5 10.5076V12.0076H33V10.5076H19.5ZM30 15.0076V16.5076H40.5V15.0076H30ZM4.5 16.5076H9V18.0001C7.353 18.0001 6 19.3516 6 21.0001C6 22.6486 7.35 24.0001 9 24.0001C9.825 24.0001 10.5795 23.6641 11.121 23.1211C11.226 23.0161 11.3145 22.8961 11.403 22.7791C12.5325 22.6846 13.5 21.5851 13.5 20.0386V16.5091H25.5V37.5091H4.5V16.5076ZM9 19.5001V20.0401C9 20.9566 9.345 21.7096 9.858 22.1986C9.61156 22.3882 9.31087 22.4939 9 22.5001C8.163 22.5001 7.5 21.8386 7.5 21.0001C7.5 20.1616 8.16 19.5001 9 19.5001ZM30 19.5091V21.0091H40.5V19.5091H30ZM14.8425 24.9286C14.3685 24.9286 14.1375 25.1836 13.9275 25.3936L7.875 32.1046C7.878 32.1046 7.878 32.1046 7.863 32.1196C7.84991 32.1341 7.8374 32.1491 7.8255 32.1646L7.8135 32.1796C7.7637 32.2351 7.71949 32.2954 7.6815 32.3596C7.56002 32.5827 7.49754 32.8331 7.5 33.0871C7.5 33.8656 8.148 34.5076 8.925 34.5076H14.0355C14.0701 34.5075 14.1047 34.505 14.139 34.5001C14.175 34.5061 14.214 34.5091 14.25 34.5091C16.6875 34.5091 18.7395 34.5496 21.759 34.5091C21.9563 34.5067 22.1448 34.4267 22.2835 34.2863C22.4222 34.1459 22.5 33.9565 22.5 33.7591V28.0051C22.5006 27.8385 22.4457 27.6765 22.344 27.5446L21.4515 26.3851C21.4382 26.368 21.4242 26.3515 21.4095 26.3356C21.1245 26.0236 20.7015 25.8256 20.3055 25.8481C19.956 25.8705 19.6285 26.0262 19.3905 26.2831C19.3566 26.32 19.3264 26.3602 19.3005 26.4031L18.1965 27.7531L16.0485 25.3771C15.895 25.217 15.7074 25.0935 15.4997 25.0159C15.2919 24.9382 15.0694 24.9084 14.8485 24.9286H14.8425ZM7.8255 32.1616L7.857 32.1211C7.8495 32.1361 7.8435 32.1361 7.8315 32.1511C7.8285 32.1511 7.827 32.1586 7.8255 32.1616ZM14.997 26.4496L17.235 28.9246L13.896 33.0046H9.081L14.997 26.4496ZM20.379 27.4516L21 28.2601V33.0091C19.0545 33.0271 17.445 33.0241 15.8325 33.0091L20.3775 27.4516H20.379Z" fill="#929292"/>
</svg>
