<svg width="48" height="48" viewBox="0 0 48 48" fill="none" xmlns="http://www.w3.org/2000/svg">
<g clip-path="url(#clip0_1_752)">
<path d="M24 0C10.767 0 0 10.767 0 24C0 37.233 10.767 48 24 48C37.233 48 48 37.233 48 24C48 10.767 37.233 0 24 0ZM24 47C11.318 47 1 36.682 1 24C1 11.318 11.318 1 24 1C36.682 1 47 11.318 47 24C47 36.682 36.682 47 24 47Z" fill="#0C0C0C"/>
<path d="M10.529 36.494C10.4848 36.4456 10.4314 36.4063 10.372 36.3785C10.3125 36.3506 10.2482 36.3348 10.1826 36.3318C10.1171 36.3288 10.0516 36.3388 9.98987 36.3612C9.92817 36.3835 9.87147 36.4178 9.82301 36.462C9.77455 36.5063 9.73528 36.5596 9.70745 36.6191C9.67962 36.6785 9.66376 36.7428 9.66079 36.8084C9.65782 36.874 9.66779 36.9395 9.69013 37.0012C9.71248 37.0629 9.74675 37.1196 9.79101 37.168L10.153 37.564C10.361 37.793 10.477 38.089 10.477 38.399V39.5C10.477 39.6326 10.5297 39.7598 10.6235 39.8536C10.7172 39.9473 10.8444 40 10.977 40C11.1096 40 11.2368 39.9473 11.3306 39.8536C11.4243 39.7598 11.477 39.6326 11.477 39.5V38.399C11.477 37.839 11.269 37.303 10.892 36.89L10.529 36.494ZM19.333 36.092C19.2351 36.1813 19.1766 36.3058 19.1704 36.4382C19.1642 36.5706 19.2108 36.7 19.3 36.798C19.537 37.058 19.668 37.395 19.668 37.746V39.5C19.668 39.6326 19.7207 39.7598 19.8145 39.8536C19.9082 39.9473 20.0354 40 20.168 40C20.3006 40 20.4278 39.9473 20.5216 39.8536C20.6153 39.7598 20.668 39.6326 20.668 39.5V37.746C20.668 37.144 20.445 36.569 20.04 36.124C19.9957 36.0755 19.9423 36.0361 19.8828 36.0082C19.8232 35.9803 19.7588 35.9644 19.6931 35.9614C19.6275 35.9585 19.5619 35.9685 19.5001 35.9909C19.4383 36.0133 19.3815 36.0477 19.333 36.092ZM27.961 36.124C27.5559 36.567 27.3314 37.1457 27.332 37.746V39.5C27.332 39.6326 27.3847 39.7598 27.4785 39.8536C27.5722 39.9473 27.6994 40 27.832 40C27.9646 40 28.0918 39.9473 28.1856 39.8536C28.2793 39.7598 28.332 39.6326 28.332 39.5V37.746C28.332 37.394 28.463 37.058 28.7 36.798C28.7444 36.7496 28.7787 36.6929 28.8011 36.6312C28.8235 36.5695 28.8335 36.504 28.8305 36.4384C28.8276 36.3728 28.8117 36.3084 28.7838 36.249C28.7559 36.1896 28.7165 36.1362 28.668 36.092C28.6197 36.0473 28.563 36.0126 28.5011 35.9899C28.4393 35.9673 28.3736 35.9572 28.3078 35.9602C28.242 35.9631 28.1775 35.9792 28.118 36.0073C28.0584 36.0354 28.0051 36.0751 27.961 36.124ZM37.471 36.494L37.108 36.89C36.7316 37.3024 36.5233 37.8407 36.524 38.399V39.5C36.524 39.6326 36.5767 39.7598 36.6705 39.8536C36.7642 39.9473 36.8914 40 37.024 40C37.1566 40 37.2838 39.9473 37.3776 39.8536C37.4713 39.7598 37.524 39.6326 37.524 39.5V38.399C37.524 38.089 37.639 37.793 37.847 37.564L38.209 37.168C38.2558 37.12 38.2925 37.0631 38.3169 37.0007C38.3413 36.9382 38.3528 36.8715 38.3509 36.8045C38.3489 36.7375 38.3336 36.6715 38.3056 36.6106C38.2777 36.5496 38.2378 36.4949 38.1883 36.4497C38.1388 36.4045 38.0807 36.3697 38.0174 36.3474C37.9542 36.3251 37.8872 36.3157 37.8202 36.3198C37.7533 36.324 37.6879 36.3415 37.6279 36.3715C37.5679 36.4014 37.5146 36.4431 37.471 36.494Z" fill="#0C0C0C"/>
<path d="M38.378 34.064L36 33.172V32.02C36.3131 31.7411 36.5639 31.3993 36.7361 31.017C36.9082 30.6346 36.9978 30.2203 36.999 29.801V28.632L37.58 26.502C37.662 26.049 37.561 25.591 37.296 25.214C37.031 24.837 36.634 24.587 36.18 24.511L33.33 24.036C32.9109 23.966 32.4809 24.0573 32.1265 24.2917C31.7721 24.526 31.5197 24.886 31.42 25.299C31.1447 25.3866 30.9013 25.5531 30.72 25.778C30.438 26.127 30.33 26.578 30.442 27.081L31 28.642V29.802C31 30.686 31.391 31.473 32.001 32.023V33.172L29.623 34.065C29.583 34.08 29.549 34.103 29.51 34.119L28.676 33.6C29.0051 33.4451 29.2748 33.1874 29.4446 32.8658C29.6143 32.5442 29.6748 32.176 29.617 31.817C29.3752 30.308 29.2535 28.7822 29.253 27.254V25.597C29.2514 24.2141 28.7014 22.8883 27.7235 21.9105C26.7457 20.9326 25.4199 20.3826 24.037 20.381C22.6541 20.3826 21.3283 20.9326 20.3505 21.9105C19.3726 22.8883 18.8226 24.2141 18.821 25.597V27.254C18.821 28.775 18.698 30.311 18.457 31.817C18.3981 32.1685 18.4542 32.5295 18.6168 32.8466C18.7795 33.1637 19.0401 33.4198 19.36 33.577L18.491 34.119C18.453 34.103 18.418 34.08 18.379 34.065L16 33.172V32.02C16.3131 31.7411 16.5639 31.3993 16.7361 31.017C16.9082 30.6346 16.9978 30.2203 16.999 29.801V28.632L17.58 26.502C17.662 26.049 17.561 25.591 17.296 25.214C17.031 24.837 16.634 24.587 16.18 24.511L13.33 24.036C12.911 23.9664 12.4812 24.058 12.1269 24.2923C11.7726 24.5266 11.5201 24.8862 11.42 25.299C11.1447 25.3866 10.9013 25.5531 10.72 25.778C10.438 26.127 10.33 26.578 10.442 27.081L11 28.642V29.802C11 30.686 11.391 31.473 12.001 32.023V33.172L9.623 34.065C9.14727 34.2447 8.73735 34.5647 8.44752 34.9825C8.1577 35.4004 8.00163 35.8964 8 36.405V39.5C8 39.6326 8.05268 39.7598 8.14645 39.8535C8.24021 39.9473 8.36739 40 8.5 40C8.63261 40 8.75979 39.9473 8.85355 39.8535C8.94732 39.7598 9 39.6326 9 39.5V36.405C9 35.783 9.391 35.219 9.974 35L10.972 34.626C11.347 35.0624 11.8117 35.4127 12.3345 35.6531C12.8572 35.8935 13.4256 36.0183 14.001 36.019C14.5762 36.0182 15.1444 35.8933 15.667 35.6529C16.1896 35.4125 16.6541 35.0622 17.029 34.626L17.644 34.857C17.2313 35.3576 17.0039 35.9852 17 36.634V39.5C17 39.6326 17.0527 39.7598 17.1464 39.8535C17.2402 39.9473 17.3674 40 17.5 40C17.6326 40 17.7598 39.9473 17.8536 39.8535C17.9473 39.7598 18 39.6326 18 39.5V36.634C18 35.988 18.327 35.399 18.875 35.058L21.099 33.672C21.855 34.461 22.897 34.941 23.999 34.941C25.101 34.941 26.142 34.461 26.898 33.673L29.123 35.058C29.672 35.399 30 35.988 30 36.635V39.5C30 39.6326 30.0527 39.7598 30.1464 39.8535C30.2402 39.9473 30.3674 40 30.5 40C30.6326 40 30.7598 39.9473 30.8536 39.8535C30.9473 39.7598 31 39.6326 31 39.5V36.635C31 35.97 30.758 35.356 30.356 34.857L30.971 34.626C31.346 35.0624 31.8107 35.4127 32.3335 35.6531C32.8562 35.8935 33.4246 36.0183 34 36.019C34.5752 36.0182 35.1434 35.8933 35.666 35.6529C36.1886 35.4125 36.6531 35.0622 37.028 34.626L38.026 35C38.609 35.219 39 35.783 39 36.405V39.5C39 39.6326 39.0527 39.7598 39.1464 39.8535C39.2402 39.9473 39.3674 40 39.5 40C39.6326 40 39.7598 39.9473 39.8536 39.8535C39.9473 39.7598 40 39.6326 40 39.5V36.405C39.9984 35.8965 39.8424 35.4004 39.5528 34.9824C39.2632 34.5644 38.8535 34.2441 38.378 34.064ZM31.497 26.406C31.5419 26.3506 31.5986 26.306 31.663 26.2753C31.7273 26.2447 31.7977 26.2289 31.869 26.229C32.145 26.229 32.369 25.973 32.369 25.697C32.3701 25.598 32.3925 25.5003 32.4347 25.4108C32.4768 25.3212 32.5378 25.2417 32.6134 25.1778C32.689 25.1138 32.7775 25.0669 32.8728 25.0402C32.9682 25.0135 33.0682 25.0076 33.166 25.023L36.016 25.498C36.1088 25.5132 36.1976 25.5468 36.2771 25.597C36.3567 25.6472 36.4253 25.7128 36.479 25.79C36.589 25.946 36.631 26.137 36.606 26.282L36.304 27.386L36.219 27.262C36.1732 27.1947 36.1116 27.1397 36.0396 27.1017C35.9676 27.0637 35.8874 27.0439 35.806 27.044H32.18C32.0976 27.0439 32.0166 27.0643 31.944 27.1032C31.8714 27.1421 31.8096 27.1984 31.764 27.267L31.635 27.459L31.401 26.809C31.3856 26.7389 31.3862 26.6663 31.4029 26.5965C31.4195 26.5267 31.4517 26.4616 31.497 26.406ZM31.999 28.713L32.447 28.043H35.542L35.999 28.712V29.802C35.9984 30.2197 35.8663 30.6267 35.6215 30.9652C35.3767 31.3037 35.0315 31.5566 34.635 31.688L34.61 31.696C34.3062 31.7939 33.9833 31.8172 33.6686 31.7639C33.3539 31.7106 33.0567 31.5824 32.802 31.39C32.799 31.388 32.796 31.389 32.794 31.387C32.5479 31.2021 32.348 30.9626 32.2101 30.6874C32.0721 30.4122 31.9999 30.1088 31.999 29.801V28.713ZM21.229 27.773V27.142C21.229 26.374 21.675 25.689 22.342 25.335C23.554 26.214 24.955 26.695 26.411 26.695H26.412L26.639 26.702C26.679 26.702 26.716 26.712 26.755 26.715V27.773C26.755 29.296 25.515 30.537 23.992 30.537C22.469 30.537 21.229 29.297 21.229 27.773ZM26.267 32.1V30.752C26.7281 30.4039 27.1025 29.9538 27.3608 29.4371C27.6191 28.9203 27.7543 28.3507 27.756 27.773V27.208C28.061 27.536 28.253 27.994 28.253 28.503C28.253 28.585 28.277 28.659 28.312 28.727C28.366 29.816 28.457 30.904 28.63 31.975C28.6455 32.0721 28.6397 32.1713 28.6131 32.266C28.5865 32.3606 28.5397 32.4484 28.4759 32.5232C28.4121 32.598 28.3329 32.6581 28.2437 32.6993C28.1544 32.7405 28.0573 32.7619 27.959 32.762H27.33L26.267 32.1ZM20.114 32.762C20.0158 32.7618 19.9188 32.7403 19.8297 32.699C19.7405 32.6577 19.6614 32.5976 19.5978 32.5228C19.5341 32.448 19.4874 32.3603 19.4608 32.2657C19.4343 32.1712 19.4285 32.072 19.444 31.975C19.694 30.417 19.82 28.829 19.82 27.254V25.597C19.82 23.273 21.711 21.381 24.036 21.381C26.361 21.381 28.252 23.273 28.252 25.597V26.314C28.029 26.1232 27.7745 25.9726 27.5 25.869C27.4457 25.8381 27.3859 25.8181 27.324 25.81C27.1076 25.7425 26.8826 25.7064 26.656 25.703L26.429 25.696C25.113 25.696 23.856 25.255 22.783 24.432C22.7186 24.3489 22.6294 24.2884 22.5284 24.2593C22.4274 24.2302 22.3198 24.2339 22.221 24.27C21.6703 24.4794 21.1914 24.8425 20.8411 25.3162C20.4908 25.7898 20.2839 26.3541 20.245 26.942C20.241 26.969 20.229 26.993 20.229 27.02V27.775C20.229 28.997 20.824 30.074 21.729 30.762V32.1L20.667 32.762H20.114ZM11.497 26.406C11.5419 26.3506 11.5986 26.306 11.663 26.2753C11.7273 26.2447 11.7977 26.2289 11.869 26.229C12.145 26.229 12.369 25.973 12.369 25.697C12.3701 25.598 12.3925 25.5003 12.4347 25.4108C12.4768 25.3212 12.5378 25.2417 12.6134 25.1778C12.689 25.1138 12.7775 25.0669 12.8728 25.0402C12.9682 25.0135 13.0682 25.0076 13.166 25.023L16.016 25.498C16.1088 25.5132 16.1976 25.5468 16.2771 25.597C16.3567 25.6472 16.4253 25.7128 16.479 25.79C16.589 25.946 16.631 26.137 16.606 26.282L16.304 27.386L16.219 27.262C16.1732 27.1947 16.1116 27.1397 16.0396 27.1017C15.9676 27.0637 15.8874 27.0439 15.806 27.044H12.18C12.0976 27.0439 12.0166 27.0643 11.944 27.1032C11.8714 27.1421 11.8096 27.1984 11.764 27.267L11.635 27.459L11.401 26.809C11.3856 26.7389 11.3862 26.6663 11.4029 26.5965C11.4195 26.5267 11.4517 26.4616 11.497 26.406ZM11.999 28.713L12.447 28.043H15.542L15.999 28.712V29.802C15.9981 30.1104 15.9256 30.4144 15.7871 30.69C15.6486 30.9656 15.448 31.2052 15.201 31.39L15.198 31.391C15.0261 31.5208 14.8343 31.6218 14.63 31.69L14.615 31.695C14.217 31.825 13.787 31.826 13.388 31.697L13.366 31.69C13.1629 31.622 12.9721 31.5217 12.801 31.393L12.797 31.392C12.5498 31.2071 12.349 30.9674 12.2103 30.6916C12.0717 30.4158 11.999 30.1116 11.998 29.803L11.999 28.713ZM14 35.019C13.2584 35.0171 12.5438 34.7407 11.994 34.243L12.676 33.987C12.7712 33.9512 12.8532 33.8872 12.9111 33.8036C12.969 33.72 13 33.6207 13 33.519V32.627C13.062 32.649 13.127 32.659 13.19 32.677C13.278 32.702 13.364 32.73 13.455 32.747C13.59 32.772 13.727 32.782 13.865 32.788C13.91 32.79 13.953 32.802 13.999 32.802C14.043 32.802 14.084 32.791 14.128 32.789C14.268 32.783 14.407 32.772 14.544 32.747C14.635 32.73 14.721 32.702 14.809 32.677C14.873 32.659 14.939 32.649 15.001 32.626V33.519C15.001 33.6207 15.032 33.72 15.0899 33.8036C15.1478 33.8872 15.2298 33.9512 15.325 33.987L16.006 34.243C15.4561 34.7405 14.7415 35.0169 14 35.019ZM24 33.94C23.24 33.94 22.516 33.639 21.961 33.134L22.494 32.802C22.565 32.7565 22.6231 32.6935 22.6627 32.6191C22.7022 32.5446 22.722 32.4613 22.72 32.377H22.729V31.302C23.1332 31.4528 23.5606 31.532 23.992 31.536C24.441 31.536 24.866 31.444 25.266 31.299V32.377H25.276C25.276 32.544 25.351 32.707 25.503 32.802L26.038 33.135C25.4824 33.6473 24.7558 33.9343 24 33.94ZM34 35.019C33.2584 35.0171 32.5438 34.7407 31.994 34.243L32.676 33.987C32.7712 33.9512 32.8532 33.8872 32.9111 33.8036C32.969 33.72 33 33.6207 33 33.519V32.626C33.056 32.646 33.116 32.655 33.173 32.672C33.267 32.699 33.359 32.729 33.457 32.747C33.589 32.771 33.723 32.781 33.857 32.787C33.905 32.789 33.95 32.801 33.998 32.801C34.04 32.801 34.079 32.79 34.12 32.789C34.263 32.783 34.405 32.772 34.546 32.746C34.63 32.73 34.71 32.704 34.792 32.681C34.861 32.662 34.932 32.651 35 32.626V33.518C35 33.6197 35.031 33.719 35.0889 33.8026C35.1468 33.8862 35.2288 33.9502 35.324 33.986L36.006 34.242C35.4564 34.7401 34.7417 35.017 34 35.019Z" fill="#0C0C0C"/>
<path d="M24 8C15.178 8 8 15.178 8 24C8 26.362 8.536 28.738 9.551 30.871C9.60802 30.9907 9.71028 31.0829 9.83527 31.1273C9.96026 31.1716 10.0978 31.1645 10.2175 31.1075C10.3372 31.0505 10.4294 30.9482 10.4738 30.8232C10.5181 30.6982 10.511 30.5607 10.454 30.441C9.49965 28.4277 9.00309 26.228 9 24C9 22.933 10.549 21.805 13.207 20.945C13.139 21.445 13.087 21.952 13.053 22.467C13.0487 22.5325 13.0573 22.5983 13.0783 22.6605C13.0994 22.7227 13.1325 22.7801 13.1758 22.8295C13.2191 22.8789 13.2716 22.9193 13.3305 22.9484C13.3894 22.9775 13.4535 22.9947 13.519 22.999C13.5847 23.0043 13.6509 22.9964 13.7135 22.9757C13.7761 22.955 13.8339 22.9219 13.8835 22.8784C13.9331 22.835 13.9735 22.782 14.0023 22.7227C14.031 22.6634 14.0476 22.5989 14.051 22.533C14.094 21.884 14.175 21.253 14.273 20.631C15.679 20.254 17.33 19.95 19.173 19.752C19.139 20.163 19.11 20.575 19.087 20.987C19.0796 21.1193 19.1251 21.2492 19.2134 21.348C19.3017 21.4468 19.4257 21.5065 19.558 21.514L19.587 21.515C19.7147 21.5149 19.8376 21.466 19.9304 21.3782C20.0232 21.2905 20.0788 21.1705 20.086 21.043C20.113 20.57 20.146 20.108 20.184 19.659C21.4539 19.5529 22.7277 19.4995 24.002 19.499C25.344 19.499 26.614 19.559 27.82 19.659C27.856 20.08 27.887 20.51 27.913 20.952C27.9155 21.018 27.9313 21.0828 27.9594 21.1425C27.9876 21.2022 28.0275 21.2556 28.0769 21.2995C28.1262 21.3434 28.1838 21.3769 28.2464 21.3979C28.309 21.419 28.3752 21.4272 28.441 21.422C28.5733 21.4143 28.6972 21.3543 28.7853 21.2553C28.8734 21.1563 28.9186 21.0263 28.911 20.894C28.889 20.513 28.861 20.132 28.83 19.752C30.672 19.95 32.323 20.254 33.729 20.631C33.827 21.253 33.908 21.884 33.951 22.532C33.9584 22.6587 34.014 22.7778 34.1064 22.8648C34.1989 22.9519 34.3211 23.0002 34.448 23L34.482 22.999C34.6143 22.99 34.7376 22.929 34.8249 22.8293C34.9122 22.7295 34.9565 22.5993 34.948 22.467C34.9143 21.958 34.8629 21.4504 34.794 20.945C37.451 21.805 39 22.933 39 24C39 26.21 38.5 28.434 37.553 30.43C37.5219 30.4896 37.5032 30.5549 37.498 30.622C37.4927 30.689 37.5011 30.7564 37.5225 30.8201C37.5439 30.8839 37.5779 30.9426 37.6226 30.9929C37.6672 31.0432 37.7216 31.084 37.7823 31.1128C37.8431 31.1416 37.909 31.1578 37.9762 31.1605C38.0434 31.1633 38.1104 31.1524 38.1733 31.1286C38.2362 31.1048 38.2937 31.0686 38.3422 31.0221C38.3908 30.9756 38.4295 30.9198 38.456 30.858C39.4694 28.7136 39.9967 26.3718 40 24C40 15.178 32.822 8 24 8ZM24 9C24.909 9 25.921 10.487 26.7 13.169C25.8041 13.0601 24.9025 13.0036 24 13C23.078 13 22.179 13.066 21.299 13.169C22.078 10.486 23.089 9 24 9ZM20.226 13.322C18.886 13.546 17.605 13.876 16.42 14.316C17.829 11.85 19.747 10.07 21.902 9.356C21.226 10.302 20.667 11.682 20.226 13.322ZM26.096 9.355C28.251 10.068 30.171 11.849 31.58 14.316C30.345 13.8656 29.0704 13.5324 27.773 13.321C27.331 11.682 26.772 10.301 26.096 9.355ZM18.822 9.94C17.299 11.143 15.986 12.853 14.991 14.916C12.92 15.89 11.199 17.188 9.982 18.705C10.7455 16.6983 11.9293 14.8781 13.454 13.3664C14.9786 11.8546 16.8089 10.6864 18.822 9.94ZM9.43 21.664C10.193 19.549 11.955 17.693 14.379 16.338C13.9444 17.481 13.6134 18.6607 13.39 19.863C11.754 20.347 10.379 20.949 9.43 21.664ZM14.463 19.57C14.7427 18.226 15.1682 16.9166 15.732 15.665C17.0893 15.0741 18.5104 14.6422 19.967 14.378C19.6492 15.8208 19.4158 17.281 19.268 18.751C17.562 18.931 15.931 19.206 14.463 19.57ZM24 18.5C22.755 18.5 21.506 18.557 20.281 18.658C20.461 16.969 20.719 15.477 21.027 14.199C22.9997 13.9324 24.9993 13.9324 26.972 14.199C27.281 15.477 27.539 16.97 27.719 18.658C26.482 18.5545 25.2413 18.5018 24 18.5ZM28.733 18.751C28.5848 17.281 28.3511 15.8208 28.033 14.378C29.555 14.662 30.983 15.096 32.269 15.665C32.8328 16.9166 33.2583 18.226 33.538 19.57C31.9568 19.1883 30.3514 18.9146 28.733 18.751ZM34.611 19.863C34.3871 18.6609 34.0561 17.4812 33.622 16.338C36.045 17.693 37.807 19.549 38.57 21.664C37.621 20.949 36.246 20.347 34.611 19.863ZM33.009 14.917C32.015 12.854 30.701 11.144 29.178 9.941C31.1913 10.687 33.0216 11.855 34.5462 13.3668C36.0707 14.8786 37.2541 16.6991 38.017 18.706C36.8 17.189 35.079 15.89 33.009 14.917Z" fill="#0C0C0C"/>
</g>
<defs>
<clipPath id="clip0_1_752">
<rect width="48" height="48" fill="white"/>
</clipPath>
</defs>
</svg>
