<svg width="27" height="24" viewBox="0 0 27 24" fill="none" xmlns="http://www.w3.org/2000/svg">
<g clip-path="url(#clip0_7_151)">
<path fill-rule="evenodd" clip-rule="evenodd" d="M4.78735 23.6719C4.25542 23.6719 3.72349 23.5388 3.45775 23.1395C3.05891 22.7407 2.79273 22.2087 2.79273 21.6768V19.5491C2.79273 19.1503 2.52655 18.8841 2.12771 18.8841H1.99462C0.930764 18.8841 0 17.9533 0 16.8895V1.99418C0 0.930764 0.798109 0 1.99462 0H24.6026C25.6665 0 26.5972 0.930764 26.5972 1.99462V16.8895C26.5972 17.9533 25.6665 18.8841 24.6026 18.8841H10.639C10.5059 18.8841 10.2401 19.0172 10.1066 19.0172L6.11738 23.0068C5.8512 23.4057 5.31927 23.6719 4.78735 23.6719ZM1.99462 1.33004C1.59578 1.33004 1.33004 1.59622 1.33004 1.99462V16.8895C1.33004 17.2883 1.59622 17.5545 1.99462 17.5545H2.12771C3.19156 17.5545 4.12276 18.4852 4.12276 19.5491V21.6768C4.12276 21.943 4.25542 22.0756 4.38895 22.2092C4.65469 22.4749 4.92044 22.608 5.31927 22.2092L9.30895 18.2191C9.70822 17.8202 10.2401 17.6871 10.7721 17.6871H24.7357C25.1345 17.6871 25.4007 17.4209 25.4007 17.0225V1.99418C25.2676 1.59535 24.8684 1.3296 24.6026 1.3296H1.99462V1.33004Z" fill="white"/>
<path fill-rule="evenodd" clip-rule="evenodd" d="M15.4267 5.98439H6.6497C6.25086 5.98439 5.98468 5.7182 5.98468 5.31937C5.98468 4.92053 6.25086 4.65479 6.6497 4.65479H15.5602C15.9586 4.65479 16.2248 4.92097 16.2248 5.31937C16.2248 5.71864 15.826 5.98439 15.4267 5.98439ZM17.6875 8.64446H6.6497C6.25086 8.64446 5.98468 8.37828 5.98468 7.97944C5.98468 7.58017 6.25086 7.31442 6.6497 7.31442H17.6875C18.0868 7.31442 18.3525 7.5806 18.3525 7.97944C18.3525 8.37828 18.0864 8.64446 17.6875 8.64446ZM19.9483 11.3041H6.6497C6.25086 11.3041 5.98468 11.0379 5.98468 10.6391C5.98468 10.2402 6.25086 9.97406 6.6497 9.97406H19.9483C20.3476 9.97406 20.6133 10.2402 20.6133 10.6391C20.6133 11.0379 20.2145 11.3041 19.9483 11.3041ZM13.299 13.9637H6.6497C6.25086 13.9637 5.98468 13.6975 5.98468 13.2987C5.98468 12.8999 6.25086 12.6337 6.6497 12.6337H13.299C13.6978 12.6337 13.964 12.8999 13.964 13.2987C13.964 13.6975 13.5652 13.9637 13.299 13.9637Z" fill="white"/>
</g>
<defs>
<clipPath id="clip0_7_151">
<rect width="26.6182" height="24" fill="white"/>
</clipPath>
</defs>
</svg>
