<svg width="48" height="48" viewBox="0 0 48 48" fill="none" xmlns="http://www.w3.org/2000/svg">
<g clip-path="url(#clip0_1_1286)">
<path d="M27 48C26.9491 48 26.8983 47.996 26.848 47.988L0.848 43.988C0.611965 43.9517 0.396713 43.8322 0.241177 43.651C0.0856412 43.4698 9.08682e-05 43.2389 0 43L0 7.00005C9.08682e-05 6.76124 0.0856412 6.53035 0.241177 6.34913C0.396713 6.16792 0.611965 6.04835 0.848 6.01205L26.848 2.01205C26.9907 1.99075 27.1362 2.00026 27.2749 2.03993C27.4136 2.0796 27.5422 2.14852 27.652 2.24205C27.7616 2.33555 27.8494 2.4518 27.9095 2.5827C27.9696 2.7136 28.0005 2.85601 28 3.00005V47C28.0011 47.1317 27.9759 47.2622 27.9261 47.384C27.8762 47.5058 27.8026 47.6165 27.7095 47.7095C27.6164 47.8026 27.5057 47.8762 27.3839 47.9261C27.2621 47.976 27.1316 48.0011 27 48ZM2 42.142L26 45.834V4.16605L2 7.85805V42.142Z" fill="#929292"/>
<path d="M47 42H27C26.7348 42 26.4804 41.8946 26.2929 41.7071C26.1054 41.5196 26 41.2652 26 41V9C26 8.73478 26.1054 8.48043 26.2929 8.29289C26.4804 8.10536 26.7348 8 27 8H47C47.2652 8 47.5196 8.10536 47.7071 8.29289C47.8946 8.48043 48 8.73478 48 9V41C48 41.2652 47.8946 41.5196 47.7071 41.7071C47.5196 41.8946 47.2652 42 47 42ZM28 40H46V10H28V40Z" fill="#929292"/>
<path d="M43 20H37C36.7348 20 36.4804 19.8946 36.2929 19.7071C36.1054 19.5196 36 19.2652 36 19V13C36 12.7348 36.1054 12.4804 36.2929 12.2929C36.4804 12.1054 36.7348 12 37 12C40.86 12 44 15.14 44 19C44 19.2652 43.8946 19.5196 43.7071 19.7071C43.5196 19.8946 43.2652 20 43 20ZM38 18H41.9C41.7016 17.0402 41.2266 16.1594 40.5336 15.4664C39.8406 14.7734 38.9598 14.2984 38 14.1V18Z" fill="#929292"/>
<path d="M33 30C29.14 30 26 26.86 26 23C26 19.14 29.14 16 33 16C33.2652 16 33.5196 16.1054 33.7071 16.2929C33.8946 16.4804 34 16.7348 34 17V22H39C39.2652 22 39.5196 22.1054 39.7071 22.2929C39.8946 22.4804 40 22.7348 40 23C40 26.86 36.86 30 33 30ZM32 18.1C29.72 18.564 28 20.584 28 23C28 25.756 30.244 28 33 28C35.416 28 37.434 26.28 37.9 24H33C32.7348 24 32.4804 23.8946 32.2929 23.7071C32.1054 23.5196 32 23.2652 32 23V18.1ZM41 34H27C26.7348 34 26.4804 33.8946 26.2929 33.7071C26.1054 33.5196 26 33.2652 26 33C26 32.7348 26.1054 32.4804 26.2929 32.2929C26.4804 32.1054 26.7348 32 27 32H41C41.2652 32 41.5196 32.1054 41.7071 32.2929C41.8946 32.4804 42 32.7348 42 33C42 33.2652 41.8946 33.5196 41.7071 33.7071C41.5196 33.8946 41.2652 34 41 34ZM41 38H27C26.7348 38 26.4804 37.8946 26.2929 37.7071C26.1054 37.5196 26 37.2652 26 37C26 36.7348 26.1054 36.4804 26.2929 36.2929C26.4804 36.1054 26.7348 36 27 36H41C41.2652 36 41.5196 36.1054 41.7071 36.2929C41.8946 36.4804 42 36.7348 42 37C42 37.2652 41.8946 37.5196 41.7071 37.7071C41.5196 37.8946 41.2652 38 41 38ZM9 34.08C8.73478 34.08 8.48043 33.9746 8.29289 33.7871C8.10536 33.5996 8 33.3452 8 33.08V17.08C8 16.8148 8.10536 16.5604 8.29289 16.3729C8.48043 16.1854 8.73478 16.08 9 16.08C9.26522 16.08 9.51957 16.1854 9.70711 16.3729C9.89464 16.5604 10 16.8148 10 17.08V33.08C10 33.3452 9.89464 33.5996 9.70711 33.7871C9.51957 33.9746 9.26522 34.08 9 34.08Z" fill="#929292"/>
<path d="M15.04 28.0001H9C8.73478 28.0001 8.48043 27.8947 8.29289 27.7072C8.10536 27.5196 8 27.2653 8 27.0001V17.0801C8 16.8149 8.10536 16.5605 8.29289 16.373C8.48043 16.1854 8.73478 16.0801 9 16.0801H15.04C16.6202 16.0817 18.1352 16.7101 19.2526 17.8275C20.37 18.9448 20.9984 20.4599 21 22.0401C20.9979 23.6201 20.3693 25.1348 19.252 26.2521C18.1348 27.3694 16.62 27.998 15.04 28.0001ZM10 26.0001H15.04C17.224 26.0001 19 24.2221 19 22.0401C19 19.8581 17.222 18.0801 15.04 18.0801H10V26.0001Z" fill="#929292"/>
</g>
<defs>
<clipPath id="clip0_1_1286">
<rect width="48" height="48" fill="white"/>
</clipPath>
</defs>
</svg>
