<svg width="48" height="48" viewBox="0 0 48 48" fill="none" xmlns="http://www.w3.org/2000/svg">
<g clip-path="url(#clip0_1_1172)">
<path d="M47.5 3.21074C47.5 1.87014 46.4095 0.779541 45.0688 0.779541H2.9312C1.59055 0.779541 0.5 1.87009 0.5 3.21074V36.3374C0.5 37.678 1.59055 38.7686 2.9312 38.7686H45.0689C46.4095 38.7686 47.5 37.6781 47.5 36.3374L47.5 3.21074ZM46.5209 36.3374C46.5209 37.138 45.8694 37.7894 45.0689 37.7894H41.8932V33.1654H40.9141V37.7894H6.3554V7.23759H5.37625V37.7894H2.9312C2.1306 37.7894 1.4792 37.138 1.4792 36.3374V3.21074C1.4792 2.41014 2.1306 1.75874 2.9312 1.75874H5.37625V5.01204H6.3554V1.75869H40.9141V31.3027H41.8932V1.75869H45.0688C45.8694 1.75869 46.5208 2.41009 46.5208 3.21069L46.5209 36.3374Z" fill="#929292"/>
<path d="M44.207 17.6067C43.2763 17.6067 42.519 18.364 42.519 19.2946C42.519 20.2253 43.2763 20.9826 44.207 20.9826C45.1376 20.9826 45.8949 20.2253 45.8949 19.2946C45.8949 18.364 45.1376 17.6067 44.207 17.6067ZM44.207 20.0034C43.8161 20.0034 43.4982 19.6855 43.4982 19.2946C43.4982 18.9038 43.8161 18.5858 44.207 18.5858C44.5978 18.5858 44.9158 18.9038 44.9158 19.2946C44.9158 19.6855 44.5978 20.0034 44.207 20.0034Z" fill="#929292"/>
<path d="M3.68151 17.4719H2.70251V21.1169H3.68151V17.4719Z" fill="#929292"/>
<path d="M43.718 40.468H11.0745V41.447H43.718V40.468Z" fill="#929292"/>
<path d="M8.61297 40.468H4.28247V41.447H8.61297V40.468Z" fill="#929292"/>
<path d="M38.4735 43.5171H33.8635V44.4961H38.4735V43.5171Z" fill="#929292"/>
<path d="M31.402 43.5171H9.52649V44.4961H31.402V43.5171Z" fill="#929292"/>
<path d="M33.7335 46.2415H19.786V47.2205H33.7335V46.2415Z" fill="#929292"/>
<path d="M17.7035 46.2415H14.2665V47.2205H17.7035V46.2415Z" fill="#929292"/>
<path d="M35.9317 7.54697H31.9854V29.7064H30.252V17.046H26.3059V29.7063H24.5725V13.4822H20.6262V29.7064H18.8928V22.2058H14.9465V29.7063H12.4953V5.71582H11.5161V7.73752H9.48059V8.71667H11.5161V13.4191H9.48059V14.3983H11.5161V19.1007H9.48059V20.0799H11.5161V24.7823H9.48059V25.7615H11.5161V29.7064H9.48059V30.6855H11.5161V32.5946H12.4953V30.6855C12.5476 30.6855 16.4781 30.6855 16.4263 30.6855V32.7211H17.4054V30.6855C17.739 30.6855 22.2599 30.6855 22.1079 30.6855V32.7211H23.087V30.6855C23.4206 30.6855 27.9413 30.6855 27.7892 30.6855V32.7211H28.7684V30.6855C29.1019 30.6855 33.6229 30.6855 33.4708 30.6855V32.7211H34.45V30.6855C34.5265 30.6855 38.5914 30.6855 38.5194 30.6855V29.7064H35.9316L35.9317 7.54697ZM15.9257 29.7064V23.1849H17.9137V29.7063L15.9257 29.7064ZM21.6054 29.7064V14.4614H23.5934V29.7064H21.6054ZM27.2851 29.7064V18.0252H29.2728V29.7064H27.2851ZM32.9645 29.7064V8.52612H34.9525V29.7063L32.9645 29.7064Z" fill="#929292"/>
<path d="M36.0754 4.04492H38.0299V8.03642H39.0089V3.06592H36.0754V4.04492Z" fill="#929292"/>
<path d="M35.2335 3.06592H33.8635V4.04492H35.2335V3.06592Z" fill="#929292"/>
<path d="M23.443 34.7529H13.533V35.7319H23.443V34.7529Z" fill="#929292"/>
<path d="M12.2725 34.7529H9.48047V35.7319H12.2725V34.7529Z" fill="#929292"/>
</g>
<defs>
<clipPath id="clip0_1_1172">
<rect width="48" height="48" fill="white"/>
</clipPath>
</defs>
</svg>
