<svg width="22" height="22" viewBox="0 0 22 22" fill="none" xmlns="http://www.w3.org/2000/svg">
<path d="M20.1613 16.2986H1.83873C1.70839 16.2986 1.57932 16.273 1.4589 16.2231C1.33848 16.1732 1.22906 16.1001 1.1369 16.0079C1.04473 15.9158 0.971624 15.8063 0.921744 15.6859C0.871864 15.5655 0.846191 15.4364 0.846191 15.3061V2.86848C0.846191 2.60525 0.950762 2.35279 1.1369 2.16665C1.32304 1.98052 1.57549 1.87595 1.83873 1.87595H20.1613C20.4246 1.87595 20.677 1.98052 20.8632 2.16665C21.0493 2.35279 21.1539 2.60525 21.1539 2.86848V15.3061C21.1539 15.4364 21.1282 15.5655 21.0783 15.6859C21.0285 15.8063 20.9553 15.9158 20.8632 16.0079C20.771 16.1001 20.6616 16.1732 20.5412 16.2231C20.4208 16.273 20.2917 16.2986 20.1613 16.2986Z" stroke="#646464" stroke-width="0.846154" stroke-miterlimit="10" stroke-linecap="round" stroke-linejoin="round"/>
<path d="M15.1488 20.1238H6.85059M14.3555 20.1238H7.64386L9.17285 16.2983H12.8265L14.3555 20.1238Z" stroke="#646464" stroke-width="0.846154" stroke-miterlimit="10" stroke-linecap="round" stroke-linejoin="round"/>
<path d="M0.846191 13.1432H21.1539" stroke="#646464" stroke-width="0.846154" stroke-miterlimit="10" stroke-linecap="round" stroke-linejoin="round"/>
<path d="M8.19741 7.10554H10.9999M8.19741 9.15027H13.8023M8.19741 11.1954H13.8023M15.6833 13.1433V7.49351L12.8627 4.67285H6.86218C6.56094 4.67285 6.31641 4.92374 6.31641 5.23385V13.1433H15.6833Z" stroke="#646464" stroke-width="0.846154" stroke-miterlimit="10" stroke-linecap="round" stroke-linejoin="round"/>
<path d="M12.8625 4.67285V6.93208C12.8625 7.2422 13.1139 7.49351 13.4235 7.49351H15.6832L12.8625 4.67285Z" stroke="#646464" stroke-width="0.846154" stroke-miterlimit="10" stroke-linecap="round" stroke-linejoin="round"/>
</svg>
