<svg width="24" height="24" viewBox="0 0 24 24" fill="none" xmlns="http://www.w3.org/2000/svg">
<g clip-path="url(#clip0_7_158)">
<path d="M21.3975 15.9824L17.8275 14.8499C17.3718 14.7035 16.885 14.6834 16.4188 14.7917C15.9526 14.9 15.5245 15.1327 15.18 15.4649L13.7625 16.8299C12.6932 16.2272 11.677 15.5347 10.725 14.7599C10.1708 14.3172 9.66771 13.8141 9.22503 13.2599C8.44781 12.3213 7.75274 11.3176 7.14752 10.2599L8.51253 8.84989C8.84471 8.5038 9.07722 8.07439 9.18547 7.60704C9.29373 7.1397 9.27371 6.65179 9.12753 6.19489L8.01752 2.60989C7.81443 1.97439 7.38077 1.43795 6.80193 1.10619C6.22309 0.774439 5.54103 0.67141 4.89002 0.817393L3.39002 1.15489C2.95659 1.26049 2.55652 1.473 2.22637 1.77302C1.89621 2.07305 1.64649 2.45101 1.50002 2.87239C-1.45498 10.9349 5.42252 17.3999 6.03752 17.9999C6.50252 18.5099 10.9875 23.2874 17.0775 23.2874C18.4638 23.2802 19.8378 23.0263 21.135 22.5374C21.5583 22.3865 21.9367 22.1316 22.2356 21.7961C22.5344 21.4605 22.744 21.0552 22.845 20.6174L23.1825 19.1174C23.3292 18.4664 23.2274 17.7841 22.8973 17.2041C22.5671 16.6242 22.0322 16.1885 21.3975 15.9824ZM21.75 18.7499L21.4125 20.2499C21.368 20.4433 21.2761 20.6227 21.1453 20.7719C21.0144 20.9211 20.8485 21.0355 20.6625 21.1049C13.365 23.7524 7.23752 16.9874 7.16253 16.9199L7.09503 16.8524C7.02752 16.7924 0.262525 10.6649 2.91002 3.35239C2.98002 3.17099 3.09304 3.00932 3.23937 2.88128C3.38569 2.75325 3.56094 2.66269 3.75002 2.61739L5.25002 2.24989C5.3248 2.24166 5.40025 2.24166 5.47502 2.24989C5.72256 2.25127 5.96345 2.33013 6.16387 2.47541C6.36429 2.62068 6.51419 2.82508 6.59252 3.05989L7.72503 6.62989C7.78704 6.829 7.79471 7.04107 7.74724 7.24414C7.69977 7.44721 7.59888 7.63391 7.45502 7.78489L5.73002 9.57739C5.62892 9.68156 5.56023 9.81284 5.53227 9.95529C5.50431 10.0977 5.5183 10.2452 5.57252 10.3799C6.23766 11.7705 7.07689 13.0709 8.07003 14.2499C8.58094 14.8808 9.15659 15.4565 9.78753 15.9674C10.9548 16.9579 12.2425 17.797 13.62 18.4649C13.7547 18.5191 13.9022 18.5331 14.0446 18.5051C14.1871 18.4772 14.3184 18.4085 14.4225 18.3074L16.215 16.5899C16.3655 16.4427 16.5531 16.3392 16.7579 16.2903C16.9626 16.2414 17.1768 16.2491 17.3775 16.3124L20.94 17.4449C21.2089 17.5295 21.4385 17.7077 21.5871 17.9471C21.7357 18.1866 21.7935 18.4714 21.75 18.7499Z" fill="white"/>
<path d="M21 0.75H13.5C12.9033 0.75 12.331 0.987053 11.909 1.40901C11.4871 1.83097 11.25 2.40326 11.25 3V11.025C11.2445 11.3981 11.3601 11.763 11.5795 12.0648C11.799 12.3667 12.1103 12.5892 12.467 12.6991C12.8236 12.8089 13.2062 12.8002 13.5575 12.6742C13.9087 12.5481 14.2096 12.3116 14.415 12L15.405 10.5H21C21.5967 10.5 22.169 10.2629 22.591 9.84099C23.013 9.41903 23.25 8.84674 23.25 8.25V3C23.25 2.40326 23.013 1.83097 22.591 1.40901C22.169 0.987053 21.5967 0.75 21 0.75ZM21.75 8.25C21.75 8.44891 21.671 8.63968 21.5303 8.78033C21.3897 8.92098 21.1989 9 21 9H15C14.8765 9.00064 14.755 9.03178 14.6464 9.09066C14.5378 9.14954 14.4454 9.23433 14.3775 9.3375L13.1625 11.145C13.1337 11.1809 13.095 11.2074 13.0511 11.2213C13.0073 11.2351 12.9603 11.2357 12.9162 11.2228C12.872 11.21 12.8327 11.1843 12.8031 11.1491C12.7735 11.1139 12.755 11.0707 12.75 11.025V3C12.75 2.80109 12.829 2.61032 12.9697 2.46967C13.1103 2.32902 13.3011 2.25 13.5 2.25H21C21.1989 2.25 21.3897 2.32902 21.5303 2.46967C21.671 2.61032 21.75 2.80109 21.75 3V8.25Z" fill="white"/>
<path d="M19.5 6H15C14.8011 6 14.6103 6.07902 14.4697 6.21967C14.329 6.36032 14.25 6.55109 14.25 6.75C14.25 6.94891 14.329 7.13968 14.4697 7.28033C14.6103 7.42098 14.8011 7.5 15 7.5H19.5C19.6989 7.5 19.8897 7.42098 20.0303 7.28033C20.171 7.13968 20.25 6.94891 20.25 6.75C20.25 6.55109 20.171 6.36032 20.0303 6.21967C19.8897 6.07902 19.6989 6 19.5 6ZM15 5.25H18C18.1989 5.25 18.3897 5.17098 18.5303 5.03033C18.671 4.88968 18.75 4.69891 18.75 4.5C18.75 4.30109 18.671 4.11032 18.5303 3.96967C18.3897 3.82902 18.1989 3.75 18 3.75H15C14.8011 3.75 14.6103 3.82902 14.4697 3.96967C14.329 4.11032 14.25 4.30109 14.25 4.5C14.25 4.69891 14.329 4.88968 14.4697 5.03033C14.6103 5.17098 14.8011 5.25 15 5.25Z" fill="white"/>
</g>
<defs>
<clipPath id="clip0_7_158">
<rect width="24" height="24" fill="white"/>
</clipPath>
</defs>
</svg>
