<svg width="22" height="22" viewBox="0 0 22 22" fill="none" xmlns="http://www.w3.org/2000/svg">
<path d="M16.512 5.20387C14.9015 4.73513 13.344 4.1007 11.8644 3.31077C11.6044 3.15062 11.305 3.06583 10.9997 3.06583C10.6943 3.06583 10.395 3.15062 10.135 3.31077C8.65548 4.1006 7.09814 4.73502 5.4879 5.20387C5.14491 5.3122 4.84674 5.52969 4.63884 5.82321C4.43094 6.11673 4.3247 6.47017 4.33631 6.82967L4.51781 12.3077C4.92228 15.0598 7.80868 17.3549 9.49366 18.4775C9.93939 18.7754 10.4635 18.9345 10.9997 18.9345C11.5358 18.9345 12.0599 18.7754 12.5057 18.4775C14.1907 17.3549 17.0771 15.0598 17.4869 12.2453L17.6629 6.83022C17.6747 6.47072 17.5686 6.11723 17.3608 5.82362C17.153 5.53001 16.8549 5.31237 16.512 5.20387ZM16.3933 12.1471C16.0506 14.4791 13.4285 16.54 11.8956 17.5616C11.6305 17.7391 11.3187 17.8339 10.9997 17.8339C10.6806 17.8339 10.3688 17.7391 10.1037 17.5616C8.57087 16.54 5.94869 14.4786 5.61143 12.2098L5.43543 6.79469C5.43143 6.67538 5.46644 6.55802 5.53517 6.46041C5.60389 6.36281 5.70258 6.29027 5.81625 6.25382C7.51311 5.75856 9.15323 5.08636 10.7096 4.2483C10.7962 4.19298 10.8969 4.16359 10.9997 4.16359C11.1025 4.16359 11.2031 4.19298 11.2897 4.2483C12.8463 5.08632 14.4867 5.75838 16.1839 6.25338C16.2974 6.28995 16.396 6.36252 16.4646 6.46012C16.5332 6.55772 16.5682 6.67501 16.5641 6.79425L16.3933 12.1471ZM11.9724 10.0712C11.9703 10.2257 11.9308 10.3775 11.8571 10.5134C11.7835 10.6493 11.678 10.7653 11.5497 10.8515V12.349C11.5497 12.4949 11.4917 12.6348 11.3886 12.7379C11.2854 12.8411 11.1455 12.899 10.9997 12.899C10.8538 12.899 10.7139 12.8411 10.6108 12.7379C10.5076 12.6348 10.4497 12.4949 10.4497 12.349V10.8515C10.3213 10.7653 10.2158 10.6493 10.1422 10.5134C10.0686 10.3775 10.029 10.2257 10.0269 10.0712C10.0269 9.81317 10.1294 9.56575 10.3118 9.38333C10.4943 9.2009 10.7417 9.09842 10.9997 9.09842C11.2577 9.09842 11.5051 9.2009 11.6875 9.38333C11.8699 9.56575 11.9724 9.81317 11.9724 10.0712Z" fill="#646464"/>
</svg>
