<svg width="48" height="48" viewBox="0 0 48 48" fill="none" xmlns="http://www.w3.org/2000/svg">
<g clip-path="url(#clip0_1_1225)">
<path d="M46.5 5.25H26.583C26.8529 4.79599 26.9969 4.27819 27 3.75C27 2.0955 25.6545 0.75 24 0.75C22.3455 0.75 21 2.0955 21 3.75C21 4.299 21.159 4.80675 21.417 5.25H1.5C1.30109 5.25 1.11032 5.32902 0.96967 5.46967C0.829018 5.61032 0.75 5.80109 0.75 6V9C0.75 9.19891 0.829018 9.38968 0.96967 9.53033C1.11032 9.67098 1.30109 9.75 1.5 9.75H3.75V33C3.75 33.1989 3.82902 33.3897 3.96967 33.5303C4.11032 33.671 4.30109 33.75 4.5 33.75H21.75V36.4395L12.2197 45.9697C12.1149 46.0746 12.0435 46.2083 12.0146 46.3537C11.9856 46.4992 12.0005 46.65 12.0572 46.787C12.114 46.924 12.2101 47.0411 12.3334 47.1236C12.4567 47.206 12.6017 47.25 12.75 47.25H17.25C17.4487 47.25 17.64 47.1712 17.7803 47.0303L21.75 43.0605V46.5C21.75 46.6989 21.829 46.8897 21.9697 47.0303C22.1103 47.171 22.3011 47.25 22.5 47.25H25.5C25.6989 47.25 25.8897 47.171 26.0303 47.0303C26.171 46.8897 26.25 46.6989 26.25 46.5V43.0605L30.2197 47.0303C30.2893 47.1 30.372 47.1553 30.463 47.193C30.5539 47.2307 30.6515 47.2501 30.75 47.25H35.25C35.3983 47.25 35.5433 47.206 35.6666 47.1236C35.7899 47.0411 35.886 46.924 35.9428 46.787C35.9995 46.65 36.0144 46.4992 35.9854 46.3537C35.9565 46.2083 35.8851 46.0746 35.7803 45.9697L26.25 36.4395V33.75H43.5C43.6989 33.75 43.8897 33.671 44.0303 33.5303C44.171 33.3897 44.25 33.1989 44.25 33V9.75H46.5C46.6989 9.75 46.8897 9.67098 47.0303 9.53033C47.171 9.38968 47.25 9.19891 47.25 9V6C47.25 5.80109 47.171 5.61032 47.0303 5.46967C46.8897 5.32902 46.6989 5.25 46.5 5.25ZM22.5 3.75C22.5 2.92275 23.1728 2.25 24 2.25C24.8272 2.25 25.5 2.92275 25.5 3.75C25.5 4.57725 24.8272 5.25 24 5.25C23.1728 5.25 22.5 4.57725 22.5 3.75ZM23.25 29.25H20.25V24.75H23.25V29.25ZM39.75 30.75V32.25H8.25V30.75H39.75ZM30.75 29.25H27.75V21.75H30.75V29.25ZM38.25 29.25H35.25V18.75H38.25V29.25ZM16.9395 45.75H14.5605L21.75 38.5605V40.9395L16.9395 45.75ZM33.4395 45.75H31.0605L26.25 40.9395V38.5605L33.4395 45.75ZM24.75 45.75H23.25V33.75H24.75V45.75ZM42.75 32.25H41.25V30C41.25 29.8011 41.171 29.6103 41.0303 29.4697C40.8897 29.329 40.6989 29.25 40.5 29.25H39.75V18C39.75 17.8011 39.671 17.6103 39.5303 17.4697C39.3897 17.329 39.1989 17.25 39 17.25H34.5C34.3011 17.25 34.1103 17.329 33.9697 17.4697C33.829 17.6103 33.75 17.8011 33.75 18V29.25H32.25V21C32.25 20.8011 32.171 20.6103 32.0303 20.4697C31.8897 20.329 31.6989 20.25 31.5 20.25H27C26.8011 20.25 26.6103 20.329 26.4697 20.4697C26.329 20.6103 26.25 20.8011 26.25 21V29.25H24.75V24C24.75 23.8011 24.671 23.6103 24.5303 23.4697C24.3897 23.329 24.1989 23.25 24 23.25H19.5C19.3011 23.25 19.1103 23.329 18.9697 23.4697C18.829 23.6103 18.75 23.8011 18.75 24V29.25H7.5C7.30109 29.25 7.11032 29.329 6.96967 29.4697C6.82902 29.6103 6.75 29.8011 6.75 30V32.25H5.25V9.75H42.75V32.25ZM45.75 8.25H2.25V6.75H45.75V8.25Z" fill="#929292"/>
<path d="M15 23.25C15.4638 23.2485 15.9158 23.1035 16.2939 22.835C16.672 22.5664 16.9578 22.1874 17.112 21.75H21C21.1623 21.75 21.3202 21.6974 21.45 21.6L27.0143 17.427C27.4224 17.7939 27.9512 17.9979 28.5 18C29.7405 18 30.75 16.9905 30.75 15.75C30.75 15.705 30.7395 15.6623 30.7365 15.6172L36.9292 14.379C37.1021 14.7853 37.3905 15.1318 37.7587 15.3756C38.1268 15.6193 38.5585 15.7495 39 15.75C40.2405 15.75 41.25 14.7405 41.25 13.5C41.25 12.2595 40.2405 11.25 39 11.25C38.5158 11.2517 38.0452 11.4098 37.6582 11.7008C37.2713 11.9918 36.9887 12.4001 36.8528 12.8647L30.1312 14.2087C29.9222 13.9855 29.6696 13.8074 29.389 13.6855C29.1084 13.5636 28.8059 13.5005 28.5 13.5C27.2595 13.5 26.25 14.5095 26.25 15.75C26.25 15.8692 26.2673 15.984 26.2853 16.0988L20.7502 20.25H17.112C16.9578 19.8126 16.672 19.4336 16.2939 19.165C15.9158 18.8965 15.4638 18.7515 15 18.75C13.7595 18.75 12.75 19.7595 12.75 21C12.75 22.2405 13.7595 23.25 15 23.25ZM39 12.75C39.1485 12.7499 39.2938 12.7938 39.4174 12.8762C39.541 12.9586 39.6373 13.0759 39.6942 13.2131C39.7511 13.3503 39.7661 13.5013 39.7371 13.647C39.7082 13.7927 39.6366 13.9266 39.5316 14.0316C39.4266 14.1366 39.2927 14.2082 39.147 14.2371C39.0013 14.2661 38.8503 14.2511 38.7131 14.1942C38.5759 14.1373 38.4586 14.041 38.3762 13.9174C38.2938 13.7938 38.2499 13.6485 38.25 13.5C38.25 13.086 38.5868 12.75 39 12.75ZM28.5 15C28.6485 14.9999 28.7938 15.0438 28.9174 15.1262C29.041 15.2086 29.1373 15.3259 29.1942 15.4631C29.2511 15.6003 29.2661 15.7513 29.2371 15.897C29.2082 16.0427 29.1366 16.1766 29.0316 16.2816C28.9266 16.3866 28.7927 16.4582 28.647 16.4871C28.5013 16.5161 28.3503 16.5011 28.2131 16.4442C28.0759 16.3873 27.9586 16.291 27.8762 16.1674C27.7938 16.0438 27.7499 15.8985 27.75 15.75C27.75 15.336 28.0868 15 28.5 15ZM15 20.25C15.1485 20.2499 15.2938 20.2938 15.4174 20.3762C15.541 20.4586 15.6373 20.5759 15.6942 20.7131C15.7511 20.8503 15.7661 21.0013 15.7371 21.147C15.7082 21.2927 15.6366 21.4266 15.5316 21.5316C15.4266 21.6366 15.2927 21.7082 15.147 21.7371C15.0013 21.7661 14.8503 21.7511 14.7131 21.6942C14.5759 21.6373 14.4586 21.541 14.3762 21.4174C14.2938 21.2938 14.2499 21.1485 14.25 21C14.25 20.586 14.5868 20.25 15 20.25Z" fill="#929292"/>
</g>
<defs>
<clipPath id="clip0_1_1225">
<rect width="48" height="48" fill="white"/>
</clipPath>
</defs>
</svg>
