<svg width="49" height="48" viewBox="0 0 49 48" fill="none" xmlns="http://www.w3.org/2000/svg">
<g clip-path="url(#clip0_1_761)">
<path d="M24.5 0C11.251 0 0.5 10.751 0.5 24C0.5 37.249 11.251 48 24.5 48C37.749 48 48.5 37.249 48.5 24C48.5 10.751 37.749 0 24.5 0ZM24.5 1C37.208 1 47.5 11.291 47.5 24C47.5 36.709 37.208 47 24.5 47C11.792 47 1.5 36.709 1.5 24C1.5 11.291 11.792 1 24.5 1ZM31.336 8.834C31.3083 8.83704 31.2808 8.84239 31.254 8.85L29.26 9.385C29.1318 9.41948 29.0225 9.50348 28.9562 9.61854C28.8899 9.73359 28.872 9.87027 28.9065 9.9985C28.941 10.1267 29.025 10.236 29.14 10.3023C29.2551 10.3686 29.3918 10.3865 29.52 10.352L30.334 10.132C26.827 15.922 18.879 22.929 10.906 24.51C10.8415 24.5229 10.7802 24.5483 10.7256 24.5849C10.6709 24.6214 10.624 24.6684 10.5875 24.7231C10.551 24.7778 10.5257 24.8391 10.5129 24.9036C10.5001 24.9681 10.5001 25.0345 10.513 25.099C10.5259 25.1635 10.5513 25.2248 10.5879 25.2794C10.6244 25.3341 10.6714 25.381 10.7261 25.4175C10.7808 25.454 10.8421 25.4793 10.9066 25.4921C10.9711 25.5049 11.0375 25.5049 11.102 25.492C19.511 23.825 27.554 16.684 31.209 10.617L31.432 11.451C31.448 11.5154 31.4768 11.576 31.5165 11.6291C31.5561 11.6823 31.606 11.7271 31.6632 11.7608C31.7204 11.7945 31.7837 11.8165 31.8494 11.8255C31.9152 11.8345 31.9821 11.8303 32.0462 11.8132C32.1103 11.796 32.1704 11.7663 32.2229 11.7257C32.2754 11.6852 32.3193 11.6345 32.352 11.5768C32.3848 11.5191 32.4057 11.4554 32.4136 11.3895C32.4215 11.3236 32.4162 11.2568 32.398 11.193L31.865 9.203C31.8364 9.0978 31.7743 9.00481 31.688 8.93819C31.6017 8.87158 31.496 8.83499 31.387 8.834C31.37 8.83313 31.353 8.83313 31.336 8.834ZM29.75 15.916C29.6174 15.916 29.4902 15.9687 29.3964 16.0624C29.3027 16.1562 29.25 16.2834 29.25 16.416V25.536C29.5735 25.3948 29.9079 25.2801 30.25 25.193V16.916H32.25V22.916C32.5152 22.916 32.7696 23.0214 32.9571 23.2089C33.1446 23.3964 33.25 23.6508 33.25 23.916V16.416C33.25 16.2834 33.1973 16.1562 33.1036 16.0624C33.0098 15.9687 32.8826 15.916 32.75 15.916H29.75ZM23.75 21.908V21.912C23.6174 21.912 23.4902 21.9647 23.3964 22.0584C23.3027 22.1522 23.25 22.2794 23.25 22.412V30.912C23.2502 30.812 23.2653 30.7125 23.295 30.617C23.3149 30.5536 23.341 30.4923 23.373 30.434C23.4588 30.2763 23.5856 30.1445 23.7399 30.0527C23.8942 29.9608 24.0704 29.9122 24.25 29.912V22.916H26.25V28.15C26.53 27.678 26.863 27.244 27.25 26.861V22.418C27.25 22.2854 27.1973 22.1582 27.1036 22.0644C27.0098 21.9707 26.8826 21.918 26.75 21.918L23.75 21.908ZM31.25 23.916V25.939C29.9704 26.0581 28.7728 26.6208 27.8643 27.5296C26.9558 28.4385 26.3936 29.6364 26.275 30.916H24.25V31.916H26.275C26.394 33.1952 26.9564 34.3927 27.8649 35.3011C28.7733 36.2096 29.9708 36.772 31.25 36.891V38.916H32.25V36.891C33.5292 36.772 34.7267 36.2096 35.6351 35.3011C36.5436 34.3927 37.106 33.1952 37.225 31.916H39.25V30.916H37.225C37.1064 29.6364 36.5442 28.4385 35.6357 27.5296C34.7272 26.6208 33.5296 26.0581 32.25 25.939V23.916H31.25ZM17.75 26C17.6174 26 17.4902 26.0527 17.3964 26.1464C17.3027 26.2402 17.25 26.3674 17.25 26.5V38.5C17.25 38.6326 17.3027 38.7598 17.3964 38.8536C17.4902 38.9473 17.6174 39 17.75 39H20.75C20.8826 39 21.0098 38.9473 21.1036 38.8536C21.1973 38.7598 21.25 38.6326 21.25 38.5V26.5C21.25 26.3674 21.1973 26.2402 21.1036 26.1464C21.0098 26.0527 20.8826 26 20.75 26H17.75ZM31.25 26.965V27.967C30.5064 28.0755 29.8176 28.4212 29.2861 28.9525C28.7546 29.4838 28.4088 30.1724 28.3 30.916H27.3C27.4099 29.906 27.8614 28.9639 28.5797 28.2454C29.298 27.5269 30.2401 27.0752 31.25 26.965ZM32.25 26.965C33.2599 27.0752 34.202 27.5269 34.9203 28.2454C35.6386 28.9639 36.09 29.906 36.2 30.916H35.2C35.0914 30.1722 34.7456 29.4834 34.2141 28.9519C33.6826 28.4204 32.9938 28.0746 32.25 27.966V26.965ZM18.25 27H20.25V38H18.25V27ZM11.75 28C11.6174 28 11.4902 28.0527 11.3964 28.1464C11.3027 28.2402 11.25 28.3674 11.25 28.5V38.5C11.25 38.6326 11.3027 38.7598 11.3964 38.8536C11.4902 38.9473 11.6174 39 11.75 39H14.75C14.8826 39 15.0098 38.9473 15.1036 38.8536C15.1973 38.7598 15.25 38.6326 15.25 38.5V28.5C15.25 28.3674 15.1973 28.2402 15.1036 28.1464C15.0098 28.0527 14.8826 28 14.75 28H11.75ZM31.244 28.965H31.25V30.008C31.0416 30.0836 30.8524 30.2041 30.6958 30.361C30.5392 30.5179 30.4191 30.7074 30.344 30.916H29.3C29.3961 30.4358 29.6317 29.9945 29.9773 29.6475C30.3229 29.3005 30.7642 29.0631 31.244 28.965ZM32.25 28.965C32.7311 29.0618 33.1729 29.2987 33.5198 29.6458C33.8668 29.9929 34.1034 30.4348 34.2 30.916H33.156C33.0809 30.7074 32.9608 30.5179 32.8042 30.361C32.6476 30.2041 32.4584 30.0836 32.25 30.008V28.965ZM12.25 29H14.25V38H12.25V29ZM23.25 31.916V38.412C23.25 38.5446 23.3027 38.6718 23.3964 38.7656C23.4902 38.8593 23.6174 38.912 23.75 38.912L26.75 38.902C26.8826 38.902 27.0098 38.8493 27.1036 38.7556C27.1973 38.6618 27.25 38.5346 27.25 38.402V35.96C26.8626 35.5748 26.5265 35.1412 26.25 34.67V37.905H24.25V32.913C23.9855 32.913 23.7317 32.8082 23.5443 32.6215C23.3569 32.4348 23.2511 32.1805 23.25 31.916ZM27.3 31.916H28.3C28.4089 32.6596 28.7548 33.3483 29.2862 33.8798C29.8177 34.4112 30.5064 34.7571 31.25 34.866V35.866C30.2402 35.7558 29.2983 35.3043 28.58 34.586C27.8617 33.8677 27.4102 32.9258 27.3 31.916ZM29.3 31.916H30.344C30.496 32.337 30.829 32.671 31.25 32.822V33.865C30.7691 33.7683 30.3276 33.5317 29.9806 33.185C29.6337 32.8383 29.3969 32.3968 29.3 31.916ZM33.156 31.916H34.2C34.1033 32.3969 33.8667 32.8385 33.52 33.1854C33.1733 33.5323 32.7318 33.7691 32.251 33.866V32.822C32.4592 32.7466 32.6483 32.6264 32.8049 32.4699C32.9614 32.3133 33.0816 32.1242 33.157 31.916H33.156ZM35.199 31.916H36.199C36.0889 32.9256 35.6375 33.8675 34.9194 34.5857C34.2013 35.304 33.2596 35.7556 32.25 35.866V34.866C32.9936 34.7571 33.6823 34.4112 34.2138 33.8798C34.7452 33.3483 35.0901 32.6596 35.199 31.916ZM29.25 37.291V38.41C29.25 38.5426 29.3027 38.6698 29.3964 38.7636C29.4902 38.8573 29.6174 38.91 29.75 38.91H30.25V37.633C29.908 37.5462 29.5735 37.4319 29.25 37.291Z" fill="black"/>
</g>
<defs>
<clipPath id="clip0_1_761">
<rect width="48" height="48" fill="white" transform="translate(0.5)"/>
</clipPath>
</defs>
</svg>
