<svg width="48" height="48" viewBox="0 0 48 48" fill="none" xmlns="http://www.w3.org/2000/svg">
<path d="M25.5 17.9999H27C27 13.8644 23.6355 10.4999 19.5 10.4999V11.9999C22.8082 11.9999 25.5 14.6917 25.5 17.9999ZM40.125 14.2499H34.5C32.8455 14.2499 31.5 15.5954 31.5 17.2499C31.5 18.9044 32.8455 20.2499 34.5 20.2499H40.125C40.7453 20.2499 41.25 20.7547 41.25 21.3749C41.25 21.9952 40.7453 22.4999 40.125 22.4999H32.25V23.9999H40.125C41.5725 23.9999 42.75 22.8224 42.75 21.3749C42.75 19.9274 41.5725 18.7499 40.125 18.7499H34.5C33.6727 18.7499 33 18.0772 33 17.2499C33 16.4227 33.6727 15.7499 34.5 15.7499H40.125C41.5725 15.7499 42.75 14.5724 42.75 13.1249C42.75 11.6774 41.5725 10.4999 40.125 10.4999H39.75C38.5095 10.4999 37.5 9.49041 37.5 8.24991V4.81041L39.2197 6.53016L40.2803 5.46966L37.2803 2.46966L37.2757 2.47416C37.2075 2.40591 37.1302 2.34516 37.0373 2.30691C36.7568 2.18991 36.435 2.25441 36.2197 2.46966L33.2197 5.46966L34.2803 6.53016L36 4.81041V8.24991C36 10.3177 37.6823 11.9999 39.75 11.9999H40.125C40.7453 11.9999 41.25 12.5047 41.25 13.1249C41.25 13.7452 40.7453 14.2499 40.125 14.2499Z" fill="#929292"/>
<path d="M4.18555 6.89055L3.31421 8.1106L8.56425 11.8601L9.43559 10.6401L4.18555 6.89055Z" fill="#929292"/>
<path d="M12.6886 1.20482L11.3105 1.79541L13.5607 7.04555L14.9387 6.45496L12.6886 1.20482Z" fill="#929292"/>
<path d="M7.5 16.5H1.5V18H7.5V16.5Z" fill="#929292"/>
<path d="M43.5 36H42.75V30.75C42.75 30.3353 42.4147 30 42 30H35.25C34.8353 30 34.5 30.3353 34.5 30.75C34.5 32.4045 33.1545 33.75 31.5 33.75C29.8455 33.75 28.5 32.4045 28.5 30.75C28.5 30.3353 28.1647 30 27.75 30H26.112C25.8855 29.3647 25.386 28.8645 24.7507 28.638C24.7515 27.9285 25.0627 27.2752 25.5847 26.8905C28.308 24.8835 30 21.4762 30 18C30 12.21 25.29 7.5 19.5 7.5C13.71 7.5 9 12.21 9 18C9 21.4762 10.692 24.8835 13.416 26.8905C13.938 27.2752 14.2492 27.9277 14.25 28.638C13.3793 28.9485 12.75 29.7735 12.75 30.75C12.75 31.3155 12.9667 31.827 13.3125 32.223C12.9667 32.625 12.75 33.159 12.75 33.75C12.75 34.9905 13.6845 36 14.8328 36H15.8257C16.1745 37.7092 17.6888 39 19.5 39C21.3112 39 22.8255 37.7092 23.1742 36H23.25V46.5C23.25 46.9147 23.5852 47.25 24 47.25H42C42.4147 47.25 42.75 46.9147 42.75 46.5V43.5H43.5C45.5677 43.5 47.25 41.8177 47.25 39.75C47.25 37.6823 45.5677 36 43.5 36ZM14.25 30.75C14.25 30.336 14.586 30 15 30H24C24.414 30 24.75 30.336 24.75 30.75C24.75 31.164 24.414 31.5 24 31.5H15C14.586 31.5 14.25 31.164 14.25 30.75ZM10.5 18C10.5 13.0373 14.5373 9 19.5 9C24.4628 9 28.5 13.0373 28.5 18C28.5 21.009 27.042 23.9535 24.6937 25.6838C23.826 26.3235 23.2987 27.369 23.2582 28.5H15.7418C15.7005 27.369 15.174 26.3235 14.3063 25.6838C11.958 23.9535 10.5 21.009 10.5 18ZM14.25 33.75C14.25 33.3435 14.517 33 14.8328 33H15H24H24.1672C24.483 33 24.75 33.3435 24.75 33.75C24.75 34.1565 24.483 34.5 24.1672 34.5H14.8328C14.517 34.5 14.25 34.1565 14.25 33.75ZM19.5 37.5C18.5235 37.5 17.6985 36.8708 17.388 36H21.6112C21.3015 36.8708 20.4765 37.5 19.5 37.5ZM43.5 42H42C41.5853 42 41.25 42.3353 41.25 42.75V45.75H24.75V35.8995C25.6133 35.625 26.25 34.7708 26.25 33.75C26.25 33.159 26.0333 32.625 25.6875 32.223C25.872 32.0123 26.016 31.7693 26.112 31.5H27.0623C27.4207 33.6255 29.274 35.25 31.5 35.25C33.726 35.25 35.5793 33.6255 35.9377 31.5H41.25V36.75C41.25 37.1647 41.5853 37.5 42 37.5H43.5C44.7405 37.5 45.75 38.5095 45.75 39.75C45.75 40.9905 44.7405 42 43.5 42Z" fill="#929292"/>
</svg>
