<svg width="48" height="48" viewBox="0 0 48 48" fill="none" xmlns="http://www.w3.org/2000/svg">
<g clip-path="url(#clip0_1_1257)">
<path d="M37.7281 20.0569V0.969238H2.62261V7.13807H0.679688V8.11766H2.62261V13.6867H0.679688V14.6663H2.62261V20.2358H0.679688V21.2154H2.62261V26.7844H0.679688V27.764H2.62261V33.333H0.679688V34.3126H2.62261V39.8822H0.679688V40.8617H2.62261V47.0306H28.3044V46.051H3.6022V40.8618H5.69809C5.92506 41.9555 6.89583 42.7803 8.05582 42.7803C9.38361 42.7803 10.4641 41.6998 10.4641 40.372C10.4641 39.0442 9.38361 37.9637 8.05582 37.9637C6.89583 37.9637 5.92511 38.7885 5.69809 39.8822H3.6022V34.3127H5.69809C5.92506 35.4064 6.89583 36.2312 8.05582 36.2312C9.38361 36.2312 10.4641 35.1507 10.4641 33.8229C10.4641 32.4951 9.38361 31.415 8.05582 31.415C6.89588 31.415 5.92511 32.2395 5.69809 33.3331H3.6022V27.7641H5.69809C5.92506 28.8578 6.89583 29.6826 8.05582 29.6826C9.38361 29.6826 10.4641 28.6021 10.4641 27.2743C10.4641 25.9465 9.38361 24.8659 8.05582 24.8659C6.89583 24.8659 5.92511 25.6908 5.69809 26.7845H3.6022V21.2154H5.69809C5.92506 22.309 6.89583 23.1334 8.05582 23.1334C9.38361 23.1334 10.4641 22.0534 10.4641 20.7256C10.4641 19.3978 9.38361 18.3173 8.05582 18.3173C6.89583 18.3173 5.92511 19.1421 5.69809 20.2358H3.6022V14.6663H5.69809C5.92506 15.76 6.89583 16.5848 8.05582 16.5848C9.38361 16.5848 10.4641 15.5043 10.4641 14.1765C10.4641 12.8487 9.38361 11.7682 8.05582 11.7682C6.89583 11.7682 5.92511 12.593 5.69809 13.6867H3.6022V8.11766H5.69809C5.92506 9.21128 6.89583 10.0357 8.05582 10.0357C9.38361 10.0357 10.4641 8.95565 10.4641 7.62787C10.4641 6.30008 9.38361 5.21954 8.05582 5.21954C6.89583 5.21954 5.92511 6.04436 5.69809 7.13807H3.6022V1.94883H36.7486V20.0569H37.7281ZM6.71907 39.8822C6.91998 39.336 7.44078 38.9433 8.05582 38.9433C8.84361 38.9433 9.48455 39.5842 9.48455 40.372C9.48455 41.1598 8.84361 41.8007 8.05582 41.8007C7.44078 41.8007 6.91998 41.408 6.71907 40.8618H8.05582V39.8822H6.71907ZM6.71916 33.3331C6.92018 32.7873 7.44088 32.3946 8.05582 32.3946C8.84361 32.3946 9.48455 33.0356 9.48455 33.8229C9.48455 34.6107 8.84361 35.2516 8.05582 35.2516C7.44078 35.2516 6.91998 34.8589 6.71907 34.3127H8.05582V33.3331H6.71916ZM6.71907 26.7845C6.91998 26.2383 7.44078 25.8455 8.05582 25.8455C8.84361 25.8455 9.48455 26.4865 9.48455 27.2743C9.48455 28.0621 8.84361 28.703 8.05582 28.703C7.44078 28.703 6.91998 28.3102 6.71907 27.7641H8.05582V26.7845H6.71907ZM8.05582 19.2969C8.84361 19.2969 9.48455 19.9378 9.48455 20.7256C9.48455 21.5129 8.84361 22.1538 8.05582 22.1538C7.44093 22.1538 6.92018 21.7612 6.71916 21.2154H8.05582V20.2358H6.71907C6.91998 19.6896 7.44078 19.2969 8.05582 19.2969ZM6.71907 13.6867C6.91998 13.1405 7.44078 12.7478 8.05582 12.7478C8.84361 12.7478 9.48455 13.3887 9.48455 14.1765C9.48455 14.9643 8.84361 15.6052 8.05582 15.6052C7.44078 15.6052 6.91998 15.2125 6.71907 14.6663H8.05582V13.6867H6.71907ZM8.05582 6.19913C8.84361 6.19913 9.48455 6.84008 9.48455 7.62787C9.48455 8.41516 8.84361 9.05611 8.05582 9.05611C7.44093 9.05611 6.92018 8.66349 6.71916 8.11766H8.05582V7.13807H6.71907C6.91998 6.5919 7.44078 6.19913 8.05582 6.19913Z" fill="#929292"/>
<path d="M32.6503 16.0957H29.595V17.0753H32.6503V16.0957Z" fill="#929292"/>
<path d="M27.1425 16.0957H12.286V17.0753H27.1425V16.0957Z" fill="#929292"/>
<path d="M32.6507 21.0386H22.9479V22.0182H32.6507V21.0386Z" fill="#929292"/>
<path d="M20.4166 21.0386H12.286V22.0182H20.4166V21.0386Z" fill="#929292"/>
<path d="M32.6503 25.9812H18.7347V26.9608H32.6503V25.9812Z" fill="#929292"/>
<path d="M15.8713 25.9812H12.286V26.9608H15.8713V25.9812Z" fill="#929292"/>
<path d="M27.1425 30.9243H12.286V31.9039H27.1425V30.9243Z" fill="#929292"/>
<path d="M26.0875 35.8672H18.2444V36.8468H26.0875V35.8672Z" fill="#929292"/>
<path d="M15.5118 35.8672H12.286V36.8468H15.5118V35.8672Z" fill="#929292"/>
<path d="M21.6823 40.8103H12.286V41.7899H21.6823V40.8103Z" fill="#929292"/>
<path d="M39.6486 37.3979V36.0955C39.6486 34.9056 38.7998 33.9107 37.676 33.683V32.6353H40.3546V24.2399C40.3546 22.4931 38.9335 21.072 37.1867 21.072C35.4399 21.072 34.0188 22.4931 34.0188 24.2399V32.6353H36.6964V33.6831C35.5731 33.9111 34.7248 34.9059 34.7248 36.0955V37.3979H28.5526L27.0536 44.7348H29.3595V47.0308H45.0139V44.7348H47.3203L45.8208 37.3979H39.6486ZM34.9984 31.6558V24.2399C34.9984 23.0331 35.9799 22.0516 37.1867 22.0516C38.3935 22.0516 39.375 23.0331 39.375 24.2399V31.6557L34.9984 31.6558ZM35.7044 36.0955C35.7044 35.2781 36.3693 34.6132 37.1867 34.6132C38.0042 34.6132 38.6691 35.278 38.6691 36.0955V37.3979H35.7045L35.7044 36.0955ZM44.0343 46.0512H30.3391V44.7348H44.0343V46.0512ZM28.2532 43.7553L28.7031 41.5541H31.6062V40.5745H28.9034L29.3523 38.3775C35.2415 38.3775 39.8235 38.3775 45.021 38.3775L45.47 40.5745H33.4635V41.5541H45.6703L46.1202 43.7552C46.0553 43.7548 44.6939 43.7515 28.2532 43.7553Z" fill="#929292"/>
<path d="M37.6766 27.2654H36.697V29.5096H37.6766V27.2654Z" fill="#929292"/>
<path d="M37.6766 24.916H36.697V26.1273H37.6766V24.916Z" fill="#929292"/>
<path d="M32.6175 35.5156H30.2826V36.4952H32.6175V35.5156Z" fill="#929292"/>
<path d="M44.091 35.5156H41.7561V36.4952H44.091V35.5156Z" fill="#929292"/>
<path d="M40.9891 13.8391H40.0095V16.5849H40.9891V13.8391Z" fill="#929292"/>
<path d="M40.9891 3.52856H40.0095V11.7459H40.9891V3.52856Z" fill="#929292"/>
<path d="M42.8973 24.3616H41.9177V29.9257H42.8973V24.3616Z" fill="#929292"/>
<path d="M14.353 7.14966H16.056V11.9041H17.0425V7.14966H18.7455V6.28125H14.353V7.14966Z" fill="#929292"/>
<path d="M19.5703 11.9041L19.9836 10.8164H22.5631L22.9764 11.9041H24.0976L21.8887 6.28101H20.658L18.4491 11.9041H19.5703ZM21.2736 7.26731L22.2852 9.94826H20.2619L21.2736 7.26731Z" fill="#929292"/>
<path d="M25.3181 11.9041L26.8948 9.70394L28.4714 11.9041H29.6513L27.5437 9.01284L29.525 6.28125H28.3362L26.8948 8.33839L25.4445 6.28125H24.2646L26.237 9.02117L24.1382 11.9041H25.3181Z" fill="#929292"/>
</g>
<defs>
<clipPath id="clip0_1_1257">
<rect width="48" height="48" fill="white"/>
</clipPath>
</defs>
</svg>
